<svg width="735" height="227" xmlns="http://www.w3.org/2000/svg" xmlns:xlink="http://www.w3.org/1999/xlink" xml:space="preserve" overflow="hidden"><defs><clipPath id="clip0"><rect x="307" y="556" width="735" height="227"/></clipPath><clipPath id="clip1"><rect x="330" y="555" width="688" height="229"/></clipPath><clipPath id="clip2"><rect x="330" y="555" width="688" height="229"/></clipPath><clipPath id="clip3"><rect x="330" y="555" width="688" height="229"/></clipPath></defs><g clip-path="url(#clip0)" transform="translate(-307 -556)"><rect x="307" y="556" width="735" height="227" fill="#FFFFFF"/><g clip-path="url(#clip1)"><g clip-path="url(#clip2)"><g clip-path="url(#clip3)"><path d="M191.618 48.145 209.59 48.145 259.878 164.88 236.136 164.88 225.254 138.169 174.635 138.169 164.083 164.88 140.835 164.88 191.618 48.145ZM217.999 120.362 200.027 72.877 181.725 120.362 217.999 120.362ZM256.363 48.145 296.924 48.145C302.529 48.145 307.916 48.6946 313.082 49.7938 318.358 50.7831 323.03 52.5418 327.097 55.0699 331.164 57.5981 334.406 61.0056 336.825 65.2925 339.243 69.5794 340.452 75.0204 340.452 81.6156 340.452 90.0795 338.089 97.1693 333.362 102.885 328.745 108.601 322.095 112.063 313.412 113.273L344.41 164.88 319.347 164.88 292.307 115.416 277.138 115.416 277.138 164.88 256.363 164.88 256.363 48.145ZM293.296 97.609C296.264 97.609 299.232 97.4991 302.2 97.2792 305.168 96.9495 307.861 96.2899 310.279 95.3007 312.807 94.2015 314.841 92.6076 316.379 90.5191 317.918 88.3207 318.688 85.2979 318.688 81.4507 318.688 78.0432 317.973 75.2952 316.544 73.2067 315.115 71.1183 313.247 69.5794 310.938 68.5901 308.63 67.4909 306.047 66.7764 303.189 66.4467 300.441 66.1169 297.748 65.952 295.11 65.952L277.138 65.952 277.138 97.609 293.296 97.609ZM358.405 153.338C358.405 149.821 359.669 146.798 362.197 144.27 364.835 141.742 367.968 140.478 371.595 140.478 375.112 140.478 378.19 141.687 380.828 144.105 383.466 146.523 384.785 149.491 384.785 153.009 384.785 156.526 383.466 159.549 380.828 162.077 378.3 164.605 375.222 165.869 371.595 165.869 369.836 165.869 368.132 165.54 366.484 164.88 364.945 164.221 363.571 163.341 362.362 162.242 361.153 161.143 360.163 159.824 359.394 158.285 358.734 156.746 358.405 155.097 358.405 153.338ZM488.643 85.7376 488.643 157.79C488.643 164.935 487.763 171.365 486.005 177.081 484.246 182.907 481.498 187.798 477.761 191.755 474.133 195.823 469.517 198.955 463.911 201.154 458.305 203.352 451.655 204.451 443.96 204.451 436.595 204.451 429.616 203.517 423.02 201.648 416.425 199.78 410.325 196.372 404.719 191.426L416.59 175.267C420.547 178.895 424.669 181.698 428.956 183.676 433.243 185.655 438.189 186.644 443.795 186.644 448.522 186.644 452.479 185.985 455.667 184.666 458.964 183.347 461.547 181.533 463.416 179.225 465.395 176.916 466.769 174.113 467.538 170.816 468.417 167.628 468.857 164.056 468.857 160.099L468.857 154.328 468.527 154.328C465.669 158.175 461.877 161.088 457.151 163.066 452.424 164.935 447.587 165.869 442.641 165.869 436.705 165.869 431.319 164.825 426.483 162.737 421.646 160.538 417.469 157.625 413.952 153.998 410.544 150.371 407.906 146.084 406.038 141.137 404.169 136.191 403.235 130.915 403.235 125.309 403.235 119.483 404.114 114.042 405.873 108.986 407.632 103.929 410.215 99.5326 413.622 95.7953 417.03 92.058 421.097 89.1451 425.823 87.0567 430.66 84.8583 436.156 83.7591 442.311 83.7591 447.917 83.7591 453.138 84.8583 457.975 87.0567 462.811 89.2551 466.659 92.7725 469.517 97.609L469.846 97.609 469.846 85.7376 488.643 85.7376ZM446.433 101.566C442.916 101.566 439.728 102.171 436.87 103.38 434.012 104.479 431.539 106.073 429.451 108.161 427.472 110.14 425.878 112.613 424.669 115.581 423.57 118.439 423.02 121.627 423.02 125.144 423.02 128.332 423.57 131.299 424.669 134.047 425.878 136.795 427.527 139.214 429.616 141.302 431.704 143.391 434.177 145.039 437.035 146.249 439.893 147.458 442.971 148.062 446.268 148.062 449.896 148.062 453.138 147.458 455.996 146.249 458.964 145.039 461.437 143.446 463.416 141.467 465.504 139.379 467.098 136.905 468.198 134.047 469.297 131.19 469.846 128.112 469.846 124.814 469.846 117.889 467.758 112.283 463.581 107.996 459.404 103.71 453.688 101.566 446.433 101.566ZM507.089 125.309C507.089 119.043 508.188 113.383 510.386 108.326 512.694 103.16 515.772 98.7631 519.619 95.1358 523.467 91.5084 528.028 88.7055 533.305 86.7269 538.581 84.7483 544.187 83.7591 550.122 83.7591 556.058 83.7591 561.664 84.7483 566.94 86.7269 572.216 88.7055 576.778 91.5084 580.625 95.1358 584.472 98.7631 587.495 103.16 589.693 108.326 592.002 113.383 593.156 119.043 593.156 125.309 593.156 131.574 592.002 137.29 589.693 142.456 587.495 147.513 584.472 151.855 580.625 155.482 576.778 159.109 572.216 161.912 566.94 163.891 561.664 165.869 556.058 166.859 550.122 166.859 544.187 166.859 538.581 165.869 533.305 163.891 528.028 161.912 523.467 159.109 519.619 155.482 515.772 151.855 512.694 147.513 510.386 142.456 508.188 137.29 507.089 131.574 507.089 125.309ZM526.874 125.309C526.874 128.387 527.369 131.354 528.358 134.212 529.457 137.07 530.996 139.598 532.975 141.797 535.063 143.995 537.536 145.754 540.394 147.073 543.252 148.392 546.495 149.052 550.122 149.052 553.75 149.052 556.992 148.392 559.85 147.073 562.708 145.754 565.126 143.995 567.105 141.797 569.193 139.598 570.732 137.07 571.722 134.212 572.821 131.354 573.37 128.387 573.37 125.309 573.37 122.231 572.821 119.263 571.722 116.405 570.732 113.547 569.193 111.019 567.105 108.821 565.126 106.622 562.708 104.864 559.85 103.545 556.992 102.226 553.75 101.566 550.122 101.566 546.495 101.566 543.252 102.226 540.394 103.545 537.536 104.864 535.063 106.622 532.975 108.821 530.996 111.019 529.457 113.547 528.358 116.405 527.369 119.263 526.874 122.231 526.874 125.309ZM600.964 85.7376 622.563 85.7376 643.668 141.137 643.997 141.137 665.267 85.7376 685.547 85.7376 654.385 164.88 633.28 164.88 600.964 85.7376Z" fill="#263C7E" transform="matrix(1 0 0 1.00128 330 556)"/><path d="M191.618 48.145 191.618 42.9925 188.241 42.9925 186.893 46.0895 191.618 48.145ZM209.59 48.145 214.322 46.1063 212.981 42.9925 209.59 42.9925 209.59 48.145ZM259.878 164.88 259.878 170.033 267.709 170.033 264.61 162.841 259.878 164.88ZM236.136 164.88 231.364 166.824 232.671 170.033 236.136 170.033 236.136 164.88ZM225.254 138.169 230.025 136.226 228.718 133.017 225.254 133.017 225.254 138.169ZM174.635 138.169 174.635 133.017 171.131 133.017 169.843 136.276 174.635 138.169ZM164.083 164.88 164.083 170.033 167.588 170.033 168.875 166.773 164.083 164.88ZM140.835 164.88 136.11 162.825 132.975 170.033 140.835 170.033 140.835 164.88ZM217.999 120.362 217.999 125.515 225.458 125.515 222.818 118.538 217.999 120.362ZM200.027 72.877 204.846 71.053 200.071 58.4362 195.219 71.0241 200.027 72.877ZM181.725 120.362 176.918 118.51 174.217 125.515 181.725 125.515 181.725 120.362ZM191.618 53.2975 209.59 53.2975 209.59 42.9925 191.618 42.9925 191.618 53.2975ZM204.858 50.1836 255.146 166.919 264.61 162.841 214.322 46.1063 204.858 50.1836ZM259.878 159.728 236.136 159.728 236.136 170.033 259.878 170.033 259.878 159.728ZM240.907 162.936 230.025 136.226 220.482 140.113 231.364 166.824 240.907 162.936ZM225.254 133.017 174.635 133.017 174.635 143.322 225.254 143.322 225.254 133.017ZM169.843 136.276 159.291 162.987 168.875 166.773 179.428 140.062 169.843 136.276ZM164.083 159.728 140.835 159.728 140.835 170.033 164.083 170.033 164.083 159.728ZM145.56 166.936 196.343 50.2005 186.893 46.0895 136.11 162.825 145.56 166.936ZM222.818 118.538 204.846 71.053 195.208 74.701 213.18 122.186 222.818 118.538ZM195.219 71.0241 176.918 118.51 186.533 122.215 204.835 74.7298 195.219 71.0241ZM181.725 125.515 217.999 125.515 217.999 115.21 181.725 115.21 181.725 125.515ZM256.363 48.145 256.363 42.9925 251.211 42.9925 251.211 48.145 256.363 48.145ZM313.082 49.7938 312.01 54.8336 312.071 54.8463 312.132 54.858 313.082 49.7938ZM336.825 65.2925 341.312 62.7609 341.312 62.7609 336.825 65.2925ZM333.362 102.885 329.392 99.6016 329.372 99.6246 329.354 99.6477 333.362 102.885ZM313.412 113.273 312.701 108.169 304.981 109.244 308.995 115.925 313.412 113.273ZM344.41 164.88 344.41 170.033 353.513 170.033 348.828 162.227 344.41 164.88ZM319.347 164.88 314.826 167.352 316.292 170.033 319.347 170.033 319.347 164.88ZM292.307 115.416 296.828 112.945 295.362 110.264 292.307 110.264 292.307 115.416ZM277.138 115.416 277.138 110.264 271.985 110.264 271.985 115.416 277.138 115.416ZM277.138 164.88 277.138 170.033 282.29 170.033 282.29 164.88 277.138 164.88ZM256.363 164.88 251.211 164.88 251.211 170.033 256.363 170.033 256.363 164.88ZM302.2 97.2792 302.58 102.418 302.675 102.411 302.769 102.4 302.2 97.2792ZM310.279 95.3007 312.23 100.069 312.282 100.048 312.333 100.026 310.279 95.3007ZM316.379 90.5191 320.527 93.5756 320.565 93.5251 320.601 93.4739 316.379 90.5191ZM316.544 73.2067 320.797 70.2973 320.797 70.2973 316.544 73.2067ZM310.938 68.5901 308.723 73.2421 308.815 73.2857 308.909 73.3259 310.938 68.5901ZM303.189 66.4467 302.575 71.5624 302.598 71.5652 303.189 66.4467ZM277.138 65.952 277.138 60.7995 271.985 60.7995 271.985 65.952 277.138 65.952ZM277.138 97.609 271.985 97.609 271.985 102.761 277.138 102.761 277.138 97.609ZM256.363 53.2975 296.924 53.2975 296.924 42.9925 256.363 42.9925 256.363 53.2975ZM296.924 53.2975C302.191 53.2975 307.217 53.8138 312.01 54.8336L314.154 44.7539C308.615 43.5754 302.868 42.9925 296.924 42.9925L296.924 53.2975ZM312.132 54.858C316.856 55.7439 320.914 57.2934 324.376 59.4458L329.817 50.6941C325.146 47.7901 319.86 45.8222 314.032 44.7295L312.132 54.858ZM324.376 59.4458C327.688 61.5044 330.331 64.2689 332.337 67.8241L341.312 62.7609C338.481 57.7424 334.639 53.6918 329.817 50.6941L324.376 59.4458ZM332.337 67.8241C334.196 71.1196 335.299 75.6171 335.299 81.6156L345.606 81.6156C345.606 74.4238 344.29 68.0391 341.312 62.7609L332.337 67.8241ZM335.299 81.6156C335.299 89.0596 333.247 94.9386 329.392 99.6016L337.333 106.169C342.93 99.4 345.606 91.0993 345.606 81.6156L335.299 81.6156ZM329.354 99.6477C325.714 104.154 320.354 107.104 312.701 108.169L314.122 118.376C323.836 117.023 331.777 113.048 337.37 106.123L329.354 99.6477ZM308.995 115.925 339.992 167.533 348.828 162.227 317.829 110.62 308.995 115.925ZM344.41 159.728 319.347 159.728 319.347 170.033 344.41 170.033 344.41 159.728ZM323.868 162.409 296.828 112.945 287.786 117.888 314.826 167.352 323.868 162.409ZM292.307 110.264 277.138 110.264 277.138 120.569 292.307 120.569 292.307 110.264ZM271.985 115.416 271.985 164.88 282.29 164.88 282.29 115.416 271.985 115.416ZM277.138 159.728 256.363 159.728 256.363 170.033 277.138 170.033 277.138 159.728ZM261.516 164.88 261.516 48.145 251.211 48.145 251.211 164.88 261.516 164.88ZM293.296 102.761C296.391 102.761 299.486 102.647 302.58 102.418L301.819 92.1408C298.978 92.3514 296.137 92.4565 293.296 92.4565L293.296 102.761ZM302.769 102.4C306.145 102.025 309.312 101.263 312.23 100.069L308.328 90.5319C306.41 91.3164 304.19 91.8739 301.631 92.1583L302.769 102.4ZM312.333 100.026C315.64 98.5883 318.416 96.4411 320.527 93.5756L312.231 87.4627C311.265 88.7742 309.974 89.8146 308.224 90.5755L312.333 100.026ZM320.601 93.4739C322.957 90.108 323.84 85.9152 323.84 81.4507L313.535 81.4507C313.535 84.6807 312.88 86.5335 312.158 87.5644L320.601 93.4739ZM323.84 81.4507C323.84 77.3573 322.984 73.4936 320.797 70.2973L312.292 76.1162C312.963 77.0969 313.535 78.7292 313.535 81.4507L323.84 81.4507ZM320.797 70.2973C318.82 67.4078 316.183 65.232 312.968 63.8543L308.909 73.3259C310.31 73.9267 311.411 74.8288 312.292 76.1162L320.797 70.2973ZM313.154 63.9381C310.273 62.5665 307.131 61.7149 303.78 61.3282L302.598 71.5652C304.963 71.8379 306.987 72.4153 308.723 73.2421L313.154 63.9381ZM303.803 61.3309C300.861 60.9778 297.963 60.7995 295.11 60.7995L295.11 71.1045C297.533 71.1045 300.021 71.256 302.575 71.5624L303.803 61.3309ZM295.11 60.7995 277.138 60.7995 277.138 71.1045 295.11 71.1045 295.11 60.7995ZM271.985 65.952 271.985 97.609 282.29 97.609 282.29 65.952 271.985 65.952ZM277.138 102.761 293.296 102.761 293.296 92.4565 277.138 92.4565 277.138 102.761ZM362.197 144.27 358.631 140.55 358.593 140.588 358.552 140.627 362.197 144.27ZM380.828 162.077 377.263 158.357 377.225 158.395 377.184 158.434 380.828 162.077ZM366.484 164.88 364.454 169.616 364.512 169.641 364.57 169.664 366.484 164.88ZM362.362 162.242 365.828 158.429 362.362 162.242ZM359.394 158.285 354.657 160.315 354.719 160.454 354.784 160.589 359.394 158.285ZM363.557 153.338C363.557 151.213 364.261 149.493 365.841 147.914L358.552 140.627C355.076 144.103 353.252 148.429 353.252 153.338L363.557 153.338ZM365.762 147.99C367.449 146.374 369.307 145.63 371.595 145.63L371.595 135.325C366.628 135.325 362.221 137.11 358.631 140.55L365.762 147.99ZM371.595 145.63C373.8 145.63 375.641 146.339 377.345 147.903L384.311 140.307C380.739 137.035 376.425 135.325 371.595 135.325L371.595 145.63ZM377.345 147.903C378.942 149.365 379.633 150.964 379.633 153.009L389.938 153.009C389.938 148.019 387.99 143.682 384.311 140.307L377.345 147.903ZM379.633 153.009C379.633 155.061 378.932 156.758 377.263 158.357L384.394 165.797C388.001 162.34 389.938 157.991 389.938 153.009L379.633 153.009ZM377.184 158.434C375.638 159.98 373.879 160.717 371.595 160.717L371.595 171.022C376.565 171.022 380.962 169.23 384.473 165.721L377.184 158.434ZM371.595 160.717C370.499 160.717 369.445 160.514 368.397 160.096L364.57 169.664C366.82 170.565 369.173 171.022 371.595 171.022L371.595 160.717ZM368.514 160.144C367.487 159.705 366.604 159.134 365.828 158.429L358.896 166.054C360.538 167.549 362.403 168.736 364.454 169.616L368.514 160.144ZM365.828 158.429C365.113 157.781 364.502 156.981 364.004 155.981L354.784 160.589C355.825 162.667 357.192 164.505 358.896 166.054L365.828 158.429ZM364.131 156.255C363.76 155.39 363.557 154.435 363.557 153.338L353.252 153.338C353.252 155.759 353.709 158.102 354.657 160.315L364.131 156.255ZM488.643 85.7376 493.795 85.7376 493.795 80.5851 488.643 80.5851 488.643 85.7376ZM486.005 177.081 481.079 175.566 481.072 175.592 486.005 177.081ZM477.761 191.755 474.016 188.218 473.965 188.271 473.917 188.326 477.761 191.755ZM463.911 201.154 465.793 205.951 463.911 201.154ZM423.02 201.648 424.425 196.691 423.02 201.648ZM404.719 191.426 400.566 188.375 397.777 192.172 401.311 195.289 404.719 191.426ZM416.59 175.267 420.073 171.469 415.838 167.589 412.437 172.217 416.59 175.267ZM428.956 183.676 426.799 188.354 428.956 183.676ZM455.667 184.666 453.753 179.882 453.726 179.893 453.698 179.905 455.667 184.666ZM463.416 179.225 459.503 175.871 459.459 175.926 459.411 175.983 463.416 179.225ZM467.538 170.816 462.571 169.446 462.543 169.545 462.519 169.645 467.538 170.816ZM468.857 154.328 474.01 154.328 474.01 149.175 468.857 149.175 468.857 154.328ZM468.527 154.328 468.527 149.175 465.937 149.175 464.392 151.255 468.527 154.328ZM457.151 163.066 459.047 167.858 459.095 167.839 459.139 167.819 457.151 163.066ZM426.483 162.737 424.35 167.427 424.394 167.447 424.439 167.467 426.483 162.737ZM413.952 153.998 410.198 157.526 410.225 157.556 410.252 157.585 413.952 153.998ZM406.038 141.137 410.857 139.316 406.038 141.137ZM405.873 108.986 401.005 107.293 405.873 108.986ZM413.622 95.7953 409.816 92.3239 413.622 95.7953ZM425.823 87.0567 427.905 91.7695 427.932 91.7585 427.956 91.7472 425.823 87.0567ZM457.975 87.0567 460.108 82.3658 460.108 82.3658 457.975 87.0567ZM469.517 97.609 465.082 100.23 466.576 102.761 469.517 102.761 469.517 97.609ZM469.846 97.609 469.846 102.761 474.999 102.761 474.999 97.609 469.846 97.609ZM469.846 85.7376 469.846 80.5851 464.694 80.5851 464.694 85.7376 469.846 85.7376ZM436.87 103.38 438.722 108.189 438.801 108.158 438.88 108.125 436.87 103.38ZM429.451 108.161 425.806 104.518 429.451 108.161ZM424.669 115.581 419.898 113.637 419.877 113.684 419.86 113.731 424.669 115.581ZM424.669 134.047 419.884 135.961 419.919 136.043 419.953 136.123 424.669 134.047ZM429.616 141.302 433.26 137.659 429.616 141.302ZM437.035 146.249 439.045 141.503 437.035 146.249ZM455.996 146.249 454.052 141.477 454.021 141.49 453.99 141.503 455.996 146.249ZM463.416 141.467 459.771 137.824 463.416 141.467ZM468.198 134.047 473.006 135.897 468.198 134.047ZM463.581 107.996 467.27 104.401 463.581 107.996ZM483.49 85.7376 483.49 157.79 493.795 157.79 493.795 85.7376 483.49 85.7376ZM483.49 157.79C483.49 164.518 482.662 170.426 481.079 175.566L490.93 178.596C492.864 172.305 493.795 165.352 493.795 157.79L483.49 157.79ZM481.072 175.592C479.516 180.744 477.142 184.908 474.016 188.218L481.508 195.293C485.857 190.689 488.976 185.07 490.937 178.57L481.072 175.592ZM473.917 188.326C470.88 191.728 466.964 194.422 462.028 196.357L465.793 205.951C472.072 203.488 477.386 199.917 481.608 195.185L473.917 188.326ZM462.028 196.357C457.164 198.265 451.181 199.299 443.96 199.299L443.96 209.604C452.129 209.604 459.445 208.439 465.793 205.951L462.028 196.357ZM443.96 199.299C437.035 199.299 430.529 198.421 424.425 196.691L421.615 206.606C428.702 208.613 436.156 209.604 443.96 209.604L443.96 199.299ZM424.425 196.691C418.637 195.051 413.21 192.046 408.13 187.562L401.311 195.289C407.439 200.699 414.213 204.508 421.615 206.606L424.425 196.691ZM408.872 194.476 420.743 178.318 412.437 172.217 400.566 188.375 408.872 194.476ZM413.11 179.066C417.404 183.004 421.966 186.124 426.799 188.354L431.117 178.998C427.372 177.271 423.69 174.785 420.073 171.469L413.11 179.066ZM426.799 188.354C431.876 190.699 437.581 191.797 443.795 191.797L443.795 181.492C438.797 181.492 434.61 180.611 431.117 178.998L426.799 188.354ZM443.795 191.797C448.965 191.797 453.64 191.081 457.638 189.427L453.698 179.905C451.318 180.889 448.082 181.492 443.795 181.492L443.795 191.797ZM457.58 189.45C461.537 187.868 464.9 185.581 467.421 182.467L459.411 175.983C458.195 177.484 456.395 178.825 453.753 179.882L457.58 189.45ZM467.328 182.578C469.905 179.573 471.619 175.997 472.557 171.986L462.519 169.645C461.918 172.23 460.884 174.26 459.503 175.871L467.328 182.578ZM472.505 172.186C473.529 168.474 474.01 164.431 474.01 160.099L463.705 160.099C463.705 163.681 463.306 166.782 462.571 169.446L472.505 172.186ZM474.01 160.099 474.01 154.328 463.705 154.328 463.705 160.099 474.01 160.099ZM468.857 149.175 468.527 149.175 468.527 159.48 468.857 159.48 468.857 149.175ZM464.392 151.255C462.124 154.308 459.095 156.667 455.162 158.313L459.139 167.819C464.659 165.509 469.214 162.042 472.663 157.4L464.392 151.255ZM455.258 158.275C451.115 159.912 446.921 160.717 442.641 160.717L442.641 171.022C448.254 171.022 453.733 169.958 459.047 167.858L455.258 158.275ZM442.641 160.717C437.32 160.717 432.642 159.783 428.527 158.006L424.439 167.467C430 169.867 436.091 171.022 442.641 171.022L442.641 160.717ZM428.616 158.046C424.336 156.1 420.698 153.552 417.651 150.411L410.252 157.585C414.244 161.699 418.96 164.976 424.35 167.427L428.616 158.046ZM417.706 150.47C414.794 147.367 412.502 143.67 410.857 139.316L401.218 142.958C403.31 148.498 406.299 153.375 410.198 157.526L417.706 150.47ZM410.857 139.316C409.222 134.986 408.387 130.33 408.387 125.309L398.082 125.309C398.082 131.499 399.116 137.396 401.218 142.958L410.857 139.316ZM408.387 125.309C408.387 120.009 409.188 115.144 410.74 110.678L401.005 107.293C399.044 112.94 398.082 118.958 398.082 125.309L408.387 125.309ZM410.74 110.678C412.283 106.241 414.519 102.459 417.432 99.2667L409.816 92.3239C405.911 96.606 402.981 101.617 401.005 107.293L410.74 110.678ZM417.432 99.2667C420.345 96.0704 423.821 93.5753 427.905 91.7695L423.742 82.3438C418.373 84.715 413.715 88.0456 409.816 92.3239L417.432 99.2667ZM427.956 91.7472C432.023 89.8978 436.774 88.9116 442.311 88.9116L442.311 78.6066C435.538 78.6066 429.296 79.8188 423.69 82.3658L427.956 91.7472ZM442.311 88.9116C447.223 88.9116 451.713 89.8699 455.842 91.7472L460.108 82.3658C454.564 79.8466 448.611 78.6066 442.311 78.6066L442.311 88.9116ZM455.842 91.7472C459.662 93.4825 462.729 96.248 465.082 100.23L473.955 94.9877C470.592 89.297 465.961 85.0276 460.108 82.3658L455.842 91.7472ZM469.517 102.761 469.846 102.761 469.846 92.4565 469.517 92.4565 469.517 102.761ZM474.999 97.609 474.999 85.7376 464.694 85.7376 464.694 97.609 474.999 97.609ZM469.846 90.8901 488.643 90.8901 488.643 80.5851 469.846 80.5851 469.846 90.8901ZM446.433 96.4136C442.318 96.4136 438.437 97.1229 434.864 98.6343L438.88 108.125C441.023 107.218 443.514 106.719 446.433 106.719L446.433 96.4136ZM435.022 98.5708C431.515 99.919 428.424 101.901 425.806 104.518L433.095 111.805C434.655 110.245 436.51 109.039 438.722 108.189L435.022 98.5708ZM425.806 104.518C423.278 107.048 421.33 110.125 419.898 113.637L429.44 117.525C430.43 115.101 431.666 113.232 433.095 111.805L425.806 104.518ZM419.86 113.731C418.503 117.26 417.868 121.087 417.868 125.144L428.173 125.144C428.173 122.166 428.637 119.617 429.478 117.431L419.86 113.731ZM417.868 125.144C417.868 128.936 418.524 132.559 419.884 135.961L429.454 132.134C428.616 130.04 428.173 127.727 428.173 125.144L417.868 125.144ZM419.953 136.123C421.416 139.446 423.426 142.398 425.971 144.946L433.26 137.659C431.628 136.029 430.34 134.145 429.385 131.972L419.953 136.123ZM425.971 144.946C428.554 147.527 431.591 149.54 435.029 150.994L439.045 141.503C436.764 140.539 434.854 139.255 433.26 137.659L425.971 144.946ZM435.029 150.994C438.56 152.488 442.325 153.215 446.268 153.215L446.268 142.91C443.617 142.91 441.226 142.427 439.045 141.503L435.029 150.994ZM446.268 153.215C450.469 153.215 454.413 152.513 458.006 150.994L453.99 141.503C451.864 142.402 449.322 142.91 446.268 142.91L446.268 153.215ZM457.941 151.02C461.455 149.589 464.529 147.64 467.06 145.111L459.771 137.824C458.346 139.251 456.477 140.489 454.052 141.477L457.941 151.02ZM467.06 145.111C469.678 142.493 471.66 139.403 473.006 135.897L463.388 132.198C462.54 134.408 461.334 136.264 459.771 137.824L467.06 145.111ZM473.006 135.897C474.35 132.405 474.999 128.695 474.999 124.814L464.694 124.814C464.694 127.528 464.244 129.974 463.388 132.198L473.006 135.897ZM474.999 124.814C474.999 116.773 472.532 109.801 467.27 104.401L459.892 111.592C462.983 114.765 464.694 119.005 464.694 124.814L474.999 124.814ZM467.27 104.401C461.925 98.9129 454.763 96.4136 446.433 96.4136L446.433 106.719C452.613 106.719 456.883 108.506 459.892 111.592L467.27 104.401ZM510.386 108.326 505.684 106.224 505.673 106.248 505.663 106.272 510.386 108.326ZM519.619 95.1358 523.158 98.8847 519.619 95.1358ZM533.308 86.7269 531.498 81.9024 533.308 86.7269ZM566.943 86.7269 568.75 81.9024 566.943 86.7269ZM580.629 95.1358 577.09 98.8847 580.629 95.1358ZM589.697 108.326 584.953 110.344 584.981 110.405 585.008 110.466 589.697 108.326ZM589.697 142.456 584.991 140.354 584.981 140.378 584.97 140.402 589.697 142.456ZM580.629 155.482 577.09 151.733 580.629 155.482ZM566.943 163.891 565.133 159.066 566.943 163.891ZM519.619 155.482 523.158 151.733 519.619 155.482ZM510.386 142.456 505.646 144.474 505.673 144.535 505.701 144.596 510.386 142.456ZM528.358 134.212 523.491 135.898 523.518 135.98 523.549 136.062 528.358 134.212ZM532.975 141.797 529.148 145.244 529.193 145.295 529.241 145.346 532.975 141.797ZM540.394 147.073 538.237 151.751 540.394 147.073ZM567.105 141.797 563.371 138.248 563.323 138.298 563.278 138.35 567.105 141.797ZM571.722 134.212 566.913 132.363 566.882 132.444 566.854 132.527 571.722 134.212ZM571.722 116.405 566.854 118.091 566.882 118.173 566.913 118.255 571.722 116.405ZM567.105 108.821 563.278 112.268 563.323 112.319 563.371 112.37 567.105 108.821ZM540.394 103.545 538.237 98.8665 540.394 103.545ZM532.975 108.821 529.241 105.272 529.193 105.322 529.148 105.374 532.975 108.821ZM528.358 116.405 523.549 114.556 523.518 114.637 523.491 114.72 528.358 116.405ZM512.241 125.309C512.241 119.654 513.234 114.706 515.113 110.381L505.663 106.272C503.145 112.059 501.936 118.433 501.936 125.309L512.241 125.309ZM515.092 110.428C517.143 105.839 519.836 102.014 523.158 98.8847L516.085 91.3868C511.712 95.5126 508.25 100.481 505.684 106.224L515.092 110.428ZM523.158 98.8847C526.472 95.7572 530.436 93.3056 535.115 91.5514L531.498 81.9024C525.624 84.1053 520.464 87.2597 516.085 91.3868L523.158 98.8847ZM535.115 91.5514C539.783 89.8012 544.774 88.9116 550.122 88.9116L550.122 78.6066C543.603 78.6066 537.382 79.6955 531.498 81.9024L535.115 91.5514ZM550.122 88.9116C555.474 88.9116 560.465 89.8012 565.133 91.5514L568.75 81.9024C562.866 79.6955 556.645 78.6066 550.122 78.6066L550.122 88.9116ZM565.133 91.5514C569.812 93.3056 573.776 95.7572 577.09 98.8847L584.163 91.3868C579.784 87.2597 574.624 84.1053 568.75 81.9024L565.133 91.5514ZM577.09 98.8847C580.391 101.994 583.016 105.79 584.953 110.344L594.437 106.309C591.978 100.529 588.557 95.5318 584.163 91.3868L577.09 98.8847ZM585.008 110.466C586.973 114.77 588.003 119.687 588.003 125.309L598.308 125.309C598.308 118.399 597.034 111.995 594.382 106.187L585.008 110.466ZM588.003 125.309C588.003 130.928 586.973 135.917 584.991 140.354L594.399 144.558C597.034 138.663 598.308 132.22 598.308 125.309L588.003 125.309ZM584.97 140.402C583.036 144.846 580.409 148.604 577.09 151.733L584.163 159.231C588.539 155.105 591.957 150.179 594.42 144.511L584.97 140.402ZM577.09 151.733C573.776 154.86 569.812 157.312 565.133 159.066L568.75 168.715C574.624 166.512 579.784 163.358 584.163 159.231L577.09 151.733ZM565.133 159.066C560.465 160.816 555.474 161.706 550.122 161.706L550.122 172.011C556.645 172.011 562.866 170.922 568.75 168.715L565.133 159.066ZM550.122 161.706C544.774 161.706 539.783 160.816 535.115 159.066L531.498 168.715C537.382 170.922 543.603 172.011 550.122 172.011L550.122 161.706ZM535.115 159.066C530.436 157.312 526.472 154.86 523.158 151.733L516.085 159.231C520.464 163.358 525.624 166.512 531.498 168.715L535.115 159.066ZM523.158 151.733C519.819 148.586 517.122 144.799 515.075 140.317L505.701 144.596C508.27 150.227 511.729 155.123 516.085 159.231L523.158 151.733ZM515.13 140.439C513.23 135.981 512.241 130.961 512.241 125.309L501.936 125.309C501.936 132.187 503.149 138.6 505.646 144.474L515.13 140.439ZM521.722 125.309C521.722 128.95 522.309 132.488 523.491 135.898L533.229 132.527C532.432 130.221 532.027 127.823 532.027 125.309L521.722 125.309ZM523.549 136.062C524.868 139.486 526.733 142.561 529.148 145.244L536.805 138.35C535.262 136.636 534.05 134.654 533.171 132.363L523.549 136.062ZM529.241 145.346C531.797 148.035 534.809 150.169 538.237 151.751L542.555 142.395C540.267 141.339 538.333 139.956 536.712 138.248L529.241 145.346ZM538.237 151.751C541.868 153.427 545.863 154.204 550.122 154.204L550.122 143.899C547.13 143.899 544.64 143.357 542.555 142.395L538.237 151.751ZM550.122 154.204C554.385 154.204 558.38 153.427 562.011 151.751L557.693 142.395C555.608 143.357 553.118 143.899 550.122 143.899L550.122 154.204ZM562.011 151.751C565.463 150.158 568.462 147.995 570.935 145.244L563.278 138.35C561.794 139.996 559.957 141.35 557.693 142.395L562.011 151.751ZM570.842 145.346C573.436 142.615 575.363 139.452 576.592 135.898L566.854 132.527C566.105 134.688 564.955 136.581 563.371 138.248L570.842 145.346ZM576.534 136.062C577.86 132.611 578.523 129.016 578.523 125.309L568.218 125.309C568.218 127.758 567.785 130.098 566.913 132.363L576.534 136.062ZM578.523 125.309C578.523 121.602 577.86 118.007 576.534 114.556L566.913 118.255C567.785 120.519 568.218 122.86 568.218 125.309L578.523 125.309ZM576.592 114.72C575.363 111.165 573.436 108.002 570.842 105.272L563.371 112.37C564.955 114.036 566.105 115.93 566.854 118.091L576.592 114.72ZM570.935 105.374C568.462 102.623 565.463 100.459 562.011 98.8665L557.693 108.223C559.957 109.268 561.794 110.622 563.278 112.268L570.935 105.374ZM562.011 98.8665C558.38 97.1906 554.385 96.4136 550.122 96.4136L550.122 106.719C553.118 106.719 555.608 107.261 557.693 108.223L562.011 98.8665ZM550.122 96.4136C545.863 96.4136 541.868 97.1906 538.237 98.8665L542.555 108.223C544.64 107.261 547.13 106.719 550.122 106.719L550.122 96.4136ZM538.237 98.8665C534.809 100.448 531.797 102.583 529.241 105.272L536.712 112.37C538.333 110.662 540.267 109.279 542.555 108.223L538.237 98.8665ZM529.148 105.374C526.733 108.057 524.868 111.131 523.549 114.556L533.171 118.255C534.05 115.964 535.262 113.982 536.805 112.268L529.148 105.374ZM523.491 114.72C522.309 118.13 521.722 121.668 521.722 125.309L532.027 125.309C532.027 122.794 532.432 120.397 533.229 118.091L523.491 114.72ZM600.964 85.7376 600.964 80.5851 593.297 80.5851 596.196 87.6853 600.964 85.7376ZM622.563 85.7376 627.379 83.9033 626.115 80.5851 622.563 80.5851 622.563 85.7376ZM643.668 141.137 638.855 142.972 640.119 146.29 643.668 146.29 643.668 141.137ZM643.997 141.137 643.997 146.29 647.539 146.29 648.81 142.984 643.997 141.137ZM665.267 85.7376 665.267 80.5851 661.729 80.5851 660.458 83.891 665.267 85.7376ZM685.547 85.7376 690.342 87.6255 693.115 80.5851 685.547 80.5851 685.547 85.7376ZM654.385 164.88 654.385 170.033 657.895 170.033 659.18 166.768 654.385 164.88ZM633.28 164.88 628.512 166.828 629.821 170.033 633.28 170.033 633.28 164.88ZM600.964 90.8901 622.563 90.8901 622.563 80.5851 600.964 80.5851 600.964 90.8901ZM617.751 87.5719 638.855 142.972 648.484 139.303 627.379 83.9033 617.751 87.5719ZM643.668 146.29 643.997 146.29 643.997 135.985 643.668 135.985 643.668 146.29ZM648.81 142.984 670.079 87.5843 660.458 83.891 639.188 139.291 648.81 142.984ZM665.267 90.8901 685.547 90.8901 685.547 80.5851 665.267 80.5851 665.267 90.8901ZM680.755 83.8497 649.593 162.992 659.18 166.768 690.342 87.6255 680.755 83.8497ZM654.385 159.728 633.28 159.728 633.28 170.033 654.385 170.033 654.385 159.728ZM638.051 162.932 605.735 83.79 596.196 87.6853 628.512 166.828 638.051 162.932Z" fill="#263C7E" transform="matrix(1 0 0 1.00128 330 556)"/><path d="M1.78183 41.2238 2.99178 41.2344 7.80202 41.22 15.3917 41.2571 15.416 41.2578 15.7328 41.2547 15.7833 41.2544 16.4367 41.2523 19.8761 41.253 20.0198 41.253 21.155 41.2526 21.6325 41.2526 27.0454 41.241 27.0597 41.2403 27.3229 41.2358 27.5945 41.2358 27.8919 41.2372 31.4139 41.2461 33.5343 41.2468 33.7502 41.2458 36.1943 41.2578 37.1337 41.2547 37.175 41.2602 39.5877 41.2643 45.3427 41.2849 46.4666 41.2726 46.5079 41.2705 47.0585 41.2705 47.0908 41.2702 52.3824 41.2842 52.3927 41.2849 54.0679 41.2781 54.0758 41.2767 56.0905 41.288 62.4147 41.2705 63.8553 41.252 66.065 41.2599 66.7867 41.2825 67.8643 41.2853 68.1611 41.3093 68.9174 41.2873 69.8858 41.2901 70.1589 41.2836 72.9859 41.264 73.0546 41.2657 73.1367 41.2647 73.5028 41.2664 75.3766 41.2533 75.9066 41.2475 76.5737 41.2496 77.2855 41.2513 77.8251 41.2547 77.8673 41.2547 78.6862 41.2557 78.9741 41.2599 79.9046 41.2609 79.9943 41.2633 83.6354 41.2502 83.6845 41.2502 85.4594 41.2427 85.5793 41.2437 85.6562 41.2441 86.1059 41.2396 86.6713 41.2382 87.8701 41.2344 89.0569 41.2276 89.1049 41.2283 89.5209 41.2252 90.425 41.23 90.7641 41.2348 91.6795 41.2296 91.8347 41.2362 93.2644 41.2362 93.5626 41.2379 93.6381 41.2365 93.8538 41.2416 94.7545 41.2492 96.3913 41.299 96.6884 41.3025 96.786 41.3069 97.577 41.3121 97.5808 41.3124 97.6416 41.3104 97.6485 41.3121 103.044 41.2935 103.309 41.2956 103.349 41.2976 106.109 41.2901 107.028 41.2836 107.04 41.2842 109.408 41.277 109.694 41.2695 111.077 41.264 111.15 41.2636 113.625 41.2654 113.697 41.2636 113.706 41.2678 113.791 41.2767 114.5 41.2592 116.566 41.2599 117.076 41.2612 118.731 41.2678 119.285 41.2605 120.493 41.2612 120.637 41.2629 121.73 41.2588 121.946 41.2623 122.284 41.2623 122.557 41.2609 122.837 41.2629 125.145 41.2647 125.301 41.2657 125.315 41.2657 130.016 41.2715 133.388 41.288 133.639 41.2846 133.741 41.287 134.452 41.286 135.712 41.2812 135.653 41.3227 135.67 41.378 135.635 41.4412 135.564 41.4199 135.512 41.4378 135.505 41.4859 135.527 41.5182 135.605 41.5625 135.594 41.6604 135.5 41.6655 135.505 41.7315 135.571 41.7878 135.5 41.8981 135.503 41.9451 135.519 41.9644 135.838 42.0904 135.928 42.0777 135.979 42.0956 136.022 42.2402 136.024 42.2989 135.899 42.3374 135.7 42.2849 135.614 42.4642 135.611 42.559 135.951 42.5871 135.974 42.5703 135.995 42.5542 136.016 42.5638 136.045 42.5796 136.058 42.6242 136.044 42.6624 136.049 42.6957 136.09 42.7695 136.173 42.8613 136.212 43.3243 136.274 43.5112 136.27 43.5596 136.165 43.7337 136.12 43.7574 136.009 43.7616 135.976 43.8608 135.966 43.9605 135.978 44.0113 136.106 44.1216 136.159 44.1312 136.225 44.0683 136.249 44.0556 136.266 44.0707 136.246 44.2909 136.206 44.3486 136.132 44.3782 136.137 44.4001 136.243 44.4087 136.364 44.3589 136.434 44.4853 136.655 44.5125 136.826 44.6124 136.861 44.6938 137.018 44.767 137.196 44.743 137.479 44.7708 137.902 44.8896 137.955 44.9508 138.015 45.0713 138.09 45.1665 138.131 45.1775 138.252 45.3386 138.386 45.5825 138.404 45.9201 138.331 46.4278 138.199 46.5467 138.055 46.7672 137.984 46.7916 137.985 46.829 138.077 46.9657 138.095 47.0362 138.065 47.0777 138 47.0939 137.969 47.2728 138.04 47.3219 138.049 47.3642 138.006 47.4848 137.949 47.5892 137.871 47.6758 137.855 47.807 137.915 47.9361 137.943 47.9437 137.997 47.9097 138.021 47.9131 138.241 48.1384 138.402 48.5135 138.216 48.822 137.982 49.0577 138.038 49.3122 137.801 49.6512 137.718 49.6808 137.573 49.6911 137.301 49.7749 137.148 49.8549 136.993 49.8498 136.914 49.8649 136.854 49.9006 136.753 50.3489 136.563 50.6931 136.518 50.7219 136.404 50.7288 136.378 50.771 136.392 50.8373 136.478 50.984 136.557 51.0135 136.557 51.0785 136.506 51.2423 136.324 51.3505 136.25 51.3522 136.149 51.321 136.023 51.3107 135.744 51.6195 135.711 51.7528 135.601 51.8221 135.563 51.8177 135.501 51.7586 135.448 51.7459 135.248 51.8362 135.08 51.9482 134.885 52.0234 134.789 52.1402 134.7 52.1564 134.627 52.1309 134.57 52.2742 134.48 52.313 134.442 52.3037 134.412 52.3199 134.354 52.4772 134.271 52.4459 134.218 52.4748 134.216 52.5816 134.25 52.6187 134.133 52.8128 133.925 52.944 133.857 52.9499 133.79 52.9 133.647 52.8932 133.376 53.3047 133.317 53.4672 133.346 53.5475 133.193 53.8405 133.312 54.036 133.314 54.2771 133.186 54.5684 133.025 54.6481 132.921 54.6783 132.871 54.8133 132.784 54.925 132.651 55.0157 132.578 55.0267 132.482 55.0078 132.425 55.0146 132.254 55.2678 132.068 55.3592 131.875 55.3846 131.438 55.4969 131.396 55.5491 131.277 55.7786 131.293 55.8497 131.29 55.9094 131.231 56.0932 131.038 56.2217 130.853 56.231 130.646 56.3982 130.601 56.5034 130.619 56.7215 130.659 56.7926 130.67 56.8905 130.667 56.9327 130.598 57.0877 130.218 57.2288 130.151 57.4428 130.1 57.9584 130.033 57.9821 129.773 58.1731 129.737 58.2401 129.761 58.4266 129.68 58.5561 129.654 58.6719 129.669 58.7292 129.657 58.7859 129.484 59.048 129.27 59.2187 128.861 59.881 129.14 59.8765 129.933 59.8734 130.03 59.8683 131.46 59.8549 131.569 59.8539 135.519 59.8188 136.476 59.8092 136.506 59.8106 137.19 59.7903 141.18 59.7591 141.4 59.7656 141.529 59.7536 141.565 59.758 141.581 59.758 143.349 59.7453 143.491 59.7426 144.127 59.7381 144.143 59.7374 144.157 59.7374 144.327 59.735 147.329 59.7024 147.337 59.702 148.32 59.701 148.322 59.7024 148.458 59.6993 148.515 59.837 148.599 59.9593 148.881 60.2393 148.892 60.275 148.857 60.6587 148.865 60.7944 148.892 60.8923 149.021 61.086 149.153 61.2045 149.468 61.4171 149.861 61.6511 150.174 61.9159 150.341 62.0911 150.796 62.4593 150.914 62.6197 150.973 62.7547 151.083 63.1157 151.14 63.2504 151.066 63.5984 150.962 63.7471 150.817 63.8934 150.747 63.9364 150.507 64.0267 150.389 64.0274 150.162 63.9374 150.016 63.7801 149.824 63.5235 149.01 63.1807 148.21 63.1621 147.752 63.4826 147.467 63.7316 147.374 63.9027 147.284 64.1583 147.25 64.2867 147.228 64.4544 147.236 64.6117 147.261 64.6976 147.354 64.8277 147.508 64.9476 147.962 65.1448 148.567 65.3409 149.182 65.6624 149.331 65.7796 149.376 65.8376 149.421 65.9544 149.432 66.0558 149.411 66.2028 149.346 66.3488 149.279 66.423 148.858 66.6699 148.752 66.75 148.429 66.8681 148.156 66.8812 147.705 66.7118 147.475 66.6826 147.474 66.7452 146.978 66.9083 146.536 67.3604 146.445 67.5187 146.514 67.7344 146.509 67.8275 146.447 67.9996 146.142 68.4067 146.033 68.5255 145.985 68.5702 145.78 68.6887 145.667 68.7258 145.425 68.7557 145.016 68.7251 144.671 68.9333 144.483 69.0246 144.211 69.2561 144.077 69.2537 143.886 69.1205 143.745 68.9333 143.217 68.6025 143.082 68.5901 142.986 68.6674 142.915 68.755 141.857 69.3595 141.745 69.4454 141.676 69.5474 141.602 69.7563 141.596 69.8988 141.655 70.3461 141.665 70.9414 141.691 71.1203 141.765 71.2749 141.861 71.4212 142.087 71.6902 142.249 72.0361 142.442 72.2442 142.694 72.4191 142.916 72.5115 143.198 72.5716 143.418 72.5802 143.674 72.5252 143.781 72.4799 143.843 72.426 143.905 72.3394 144.037 72.0687 144.079 72.0206 144.234 71.9341 144.456 71.8643 144.562 71.876 144.633 71.9131 144.798 72.1347 144.869 72.3404 144.879 72.606 144.85 72.8244 144.787 73.045 144.704 73.1851 144.483 73.3197 144.098 73.4716 143.557 73.88 143.477 73.904 143.392 73.8975 143.202 73.8577 143.061 73.8065 143.015 73.824 142.789 74.0013 142.398 74.1617 142.005 74.3915 141.831 74.543 141.74 74.6615 141.66 74.7992 141.626 74.9184 141.625 74.9833 141.662 75.1327 141.738 75.3303 141.96 75.7881 142.025 75.908 142.127 76.0461 142.501 76.2299 142.651 76.266 142.856 76.2752 142.954 76.2972 143.057 76.3779 143.084 76.5054 143.054 76.6143 143.057 76.7008 143.117 76.7259 143.215 76.7719 143.252 76.8114 143.267 76.8674 143.152 77.2796 143.111 77.3676 143.023 77.4826 142.917 77.5668 142.798 77.6125 142.681 77.5919 142.364 77.4411 142.017 77.4101 141.926 77.3844 141.828 77.3191 141.673 77.1824 141.631 77.1237 141.631 77.0162 141.69 76.9028 141.694 76.8547 141.662 76.6768 141.608 76.5912 141.066 76.1444 140.669 75.918 140.56 75.8912 140.376 75.8768 140.094 75.917 140.004 75.9523 139.82 76.0664 139.62 76.054 139.476 76.0939 139.345 76.1602 139.203 76.2745 139.138 76.3584 139.071 76.7465 138.986 76.9598 138.941 77.0357 138.854 77.3047 138.818 77.5609 138.872 77.9615 138.954 78.2486 139.023 78.4039 139.283 78.8291 139.727 79.2122 139.769 79.3021 139.773 79.4117 139.675 79.6845 139.609 79.7989 139.538 80.0362 139.529 80.143 139.538 80.3179 139.514 80.3989 139.455 80.4958 139.396 80.6305 139.386 80.7737 139.113 80.9475 139.05 81.0093 139.002 81.0829 138.969 81.222 138.93 81.3123 138.625 81.6486 138.975 81.8856 139.083 81.9114 138.983 82.0453 138.687 82.1683 138.241 81.483 138.461 81.2312 138.202 80.9341 138.095 80.5422 138.095 80.3357 138.178 79.9424 138.303 79.5532 138.305 79.411 138.286 79.3602 138.153 79.1939 137.911 78.9707 137.762 78.8975 137.346 78.9064 137.253 78.969 137.072 78.9672 136.869 79.1311 136.748 79.2661 136.68 79.3777 136.603 79.5938 136.412 80.2509 135.21 80.9867 135.161 81.1151 135.158 81.4188 134.898 82.3298 134.926 82.4435 135.107 82.6052 135.294 82.7128 135.942 82.7169 136.228 82.6423 135.986 82.2418 135.913 81.9677 135.903 81.807 135.937 81.65 135.987 81.5431 136.041 81.4738 136.156 81.3659 136.239 81.312 136.381 81.2838 136.793 81.359 136.927 81.4154 136.986 81.4724 137.101 81.6651 137.16 81.7331 137.409 81.9612 137.502 82.0316 137.679 82.123 137.917 82.327 137.976 82.3552 138.067 82.3679 137.798 82.9305 137.674 83.1329 137.596 83.2201 137.505 83.2349 137.403 83.3548 137.298 83.5595 137.085 83.87 137.039 83.8903 136.994 83.8831 137.189 84.263 137.099 84.5481 137.03 85.2667 136.783 85.3251 136.642 85.2832 136.586 85.2832 136.322 85.4312 136.106 85.492 135.793 85.3289 135.684 85.3543 135.517 85.4257 135.446 85.4875 135.368 85.5913 135.326 85.6985 135.214 86.1079 135.216 86.2141 135.283 86.3789 135.518 86.8183 135.724 87.0591 136.079 87.1944 136.331 87.1618 136.59 87.0958 136.806 87.0666 137 87.0787 137.152 87.1212 137.322 87.227 137.369 87.2789 137.584 87.5637 137.723 87.8003 137.825 87.9429 137.953 88.0896 138.01 88.2139 138.069 88.3585 138.093 88.4822 138.089 88.6855 138.011 88.7838 137.879 88.8082 137.79 88.725 137.654 88.6536 137.511 88.9861 137.414 89.2946 137.386 89.2963 137.031 89.139 136.815 89.1609 136.774 89.4509 136.778 89.5488 136.875 89.7751 136.97 89.8868 137.028 89.8936 137.061 90.0355 137.139 90.177 137.209 90.2763 137.314 90.4041 137.412 90.5319 137.521 90.6689 137.6 90.7039 138.237 90.7998 138.311 90.8657 138.326 90.8936 138.382 91.2755 138.359 91.3824 138.322 91.4445 138.183 91.6053 137.811 91.9677 137.711 92.0367 137.592 92.091 137.289 92.1494 137.021 92.069 136.121 91.5173 136.006 91.4775 135.949 91.4813 135.605 91.6273 135.482 91.7059 135.322 91.8375 135.07 92.0989 134.971 92.3174 134.833 93.0724 134.416 94.153 134.372 94.3595 134.355 94.5566 134.363 94.8143 134.387 95.043 134.264 95.2103 133.982 95.4388 133.831 95.4662 133.774 95.457 133.514 95.3141 133.337 95.2646 132.551 95.1488 132.372 95.0795 132.341 95.0396 132.329 94.963 132.283 94.9372 131.472 94.8826 131.362 94.9448 131.311 95.0248 131.207 95.3567 131.019 95.7434 130.928 96.0512 130.916 96.2501 130.946 96.5637 131.094 96.9557 131.153 97.0601 131.337 97.2689 131.439 97.3335 131.617 97.408 131.768 97.5856 131.89 97.6797 132.455 97.9453 132.627 98.0473 132.747 98.1854 132.814 98.3049 132.866 98.4361 132.916 98.681 132.908 99.2846 132.853 99.5343 132.8 99.6957 132.745 99.7837 131.856 100.412 131.169 100.777 130.924 100.957 130.819 101.081 131.116 101.517 131.152 101.635 131.148 101.712 131.109 101.852 131.004 102.009 130.885 102.081 130.645 102.058 130.528 102.002 130.247 101.778 130.001 101.494 129.763 101.684 129.643 101.754 128.802 102.018 128.14 102.405 127.865 102.524 127.738 102.531 127.51 102.465 127.464 102.431 127.316 102.183 127.252 101.908 127.225 101.687 127.225 101.546 127.305 101.322 127.309 101.246 127.275 101.099 127.078 100.679 127.025 100.612 126.936 100.549 126.828 100.488 126.551 100.373 126.371 100.344 126.179 100.379 125.889 100.549 125.762 100.66 125.638 100.882 125.62 100.957 125.605 101.17 125.64 101.458 125.699 101.586 125.928 101.889 126.251 102.419 126.459 102.839 126.464 102.948 126.396 103.164 126.203 103.304 126.046 103.507 125.993 103.6 125.944 103.748 125.923 103.937 125.955 104.096 126.049 104.385 126.4 104.989 126.577 105.386 126.634 105.588 126.632 105.708 126.595 105.875 126.519 106.032 126.428 106.127 126.065 106.342 125.767 106.424 125.489 106.462 125.1 106.444 124.703 106.247 124.594 106.133 124.512 105.921 124.485 105.742 124.485 105.563 124.526 105.384 124.648 105.204 124.983 104.978 125.11 104.783 125.12 104.737 125.104 104.606 125.038 104.412 124.762 103.817 124.703 103.625 124.455 103.607 124.198 103.668 124.041 103.741 123.928 103.844 123.811 104.011 123.703 104.25 123.686 104.348 123.696 104.446 123.746 104.655 123.855 104.984 123.853 105.412 123.819 105.534 123.758 105.655 123.703 105.712 123.622 105.769 123.534 105.801 123.439 105.815 123.33 105.842 123.219 105.919 123.162 105.997 123.107 106.109 123.078 106.329 123.081 106.423 123.099 106.478 123.155 106.56 123.751 107.249 123.966 107.369 124.263 107.44 124.479 107.448 124.851 107.397 125.255 107.303 125.547 107.271 125.757 107.269 125.904 107.294 126.026 107.358 126.151 107.483 126.252 107.648 126.288 107.776 126.28 107.903 126.182 108.257 126.068 108.434 125.767 108.779 125.518 108.963 125.253 109.208 125.057 109.475 124.904 109.624 124.628 109.832 124.406 109.92 124.172 109.957 124.021 109.947 123.822 109.882 123.703 109.806 123.577 109.631 123.505 109.471 123.476 109.277 123.51 108.958 123.55 108.788 123.626 108.652 123.953 108.381 123.994 108.297 123.97 107.961 123.932 107.87 123.851 107.732 123.689 107.573 123.635 107.489 123.56 107.43 123.46 107.399 123.224 107.474 123.104 107.565 122.928 107.817 122.757 107.911 122.658 108.042 122.463 108.379 122.46 108.463 122.496 108.581 122.526 109.079 122.566 109.246 122.625 109.372 122.627 109.406 122.468 109.989 122.499 110.384 122.668 110.801 122.878 111.127 123.019 111.41 123.179 111.586 123.398 111.792 123.654 112.112 123.756 112.287 123.906 112.737 123.912 112.838 123.896 112.938 123.824 113.117 123.761 113.212 123.47 113.457 123.043 113.68 122.765 113.99 122.687 114.116 122.612 114.433 122.521 114.577 122.447 114.904 122.418 115.132 122.465 115.647 122.553 115.985 122.606 116.072 122.813 116.235 122.903 116.324 123.104 116.741 123.15 116.958 123.129 117.134 123.072 117.305 122.988 117.467 122.861 117.654 122.698 117.821 121.687 118.538 121.55 118.609 121.151 118.666 121.049 118.696 120.853 118.786 120.332 119.082 120.429 119.221 120.081 119.801 120.079 120.063 120.275 120.527 120.368 120.833 120.364 121.016 120.245 121.263 120.004 121.349 119.738 121.349 119.497 121.25 119.376 121.148 119.281 121.004 119.264 120.746 119.329 120.423 119.63 119.906 119.664 119.558 119.621 119.433 119.582 119.331 119.361 119.338 119.067 119.438 118.705 119.512 118.315 119.517 118.187 119.498 117.807 119.389 117.549 119.364 117.364 119.387 117.185 119.478 117.073 119.574 117.034 119.64 116.992 119.886 117.013 120.125 117.033 120.183 117.091 120.271 117.585 120.697 117.713 120.921 117.774 121.087 117.838 121.333 117.829 121.584 117.762 121.738 117.471 122.208 117.392 122.295 117.092 122.524 116.876 122.545 116.107 122.456 115.944 122.454 115.643 122.563 115.397 122.621 115.289 122.679 115.174 122.772 115.102 122.859 115.048 122.995 114.909 123.623 114.818 124.129 114.813 124.346 114.832 124.486 114.817 124.6 114.752 124.823 114.671 125.036 114.58 125.197 114.429 125.093 114.309 125.014 113.995 124.995 113.628 124.875 113.159 124.552 113.046 124.449 112.991 124.363 112.863 123.953 112.813 123.861 112.778 123.826 112.617 123.774 112.29 123.752 112.112 123.824 111.975 123.98 111.887 124.107 111.865 124.201 111.869 124.456 111.923 124.745 112 124.898 112.506 125.544 112.635 125.653 113.241 125.983 113.362 126.083 113.519 125.997 113.678 125.952 113.789 126.039 113.916 126.048 114.071 126.015 114.237 125.928 114.343 125.907 114.601 125.936 114.872 126.017 115.17 125.982 115.529 126.046 115.657 126.127 115.728 126.211 115.769 126.304 115.815 126.608 115.795 126.824 115.702 127.025 115.55 127.242 115.346 127.452 115.251 127.526 115.112 127.605 114.936 127.675 114.599 127.711 114.408 127.688 114.07 127.579 113.97 127.521 113.698 127.305 113.508 127.184 113.164 126.843 112.885 126.721 112.689 126.678 111.837 127.283 111.343 127.653 111.191 127.947 111.217 128.136 111.293 128.316 111.519 128.635 111.586 128.704 112.347 129.259 112.434 129.292 112.566 129.303 112.959 129.234 113.19 129.121 113.356 129.121 113.522 129.164 113.635 129.237 113.705 129.297 113.847 129.523 113.891 129.664 113.889 129.744 113.847 129.894 113.767 130.05 113.537 130.343 113.409 130.536 113.363 130.65 113.339 130.757 113.326 130.976 113.377 131.211 113.389 131.382 113.376 131.475 113.329 131.573 113.224 131.678 113.01 131.789 112.549 131.858 112.325 131.81 112.272 131.812 111.933 131.952 111.697 131.996 111.465 132.004 111.217 131.916 110.844 131.867 110.656 131.878 110.479 131.908 110.321 131.96 110.564 132.642 110.639 132.77 110.838 132.938 111.123 133.368 111.133 133.505 111.057 133.81 111.012 133.89 110.938 133.967 110.84 134.019 110.658 134.068 110.46 134.08 110.33 134.058 110.111 133.974 109.951 133.855 109.864 133.694 109.803 133.474 109.541 132.845 109.38 132.533 108.928 132.815 108.751 133.032 108.655 133.121 108.485 133.184 108.062 133.184 107.79 133.205 107.664 133.237 107.546 133.291 107.426 133.371 107.282 133.535 107.246 133.631 107.227 133.737 107.226 133.871 107.259 134.039 107.318 134.149 107.399 134.224 107.569 134.301 108.534 134.54 108.862 134.672 109.344 134.91 109.56 135.085 109.641 135.19 109.649 135.274 109.625 135.327 109.423 135.56 109.153 135.959 108.84 136.299 108.274 136.857 108.093 137.056 107.8 137.444 107.742 137.599 107.735 137.777 107.791 138.062 107.903 138.389 107.98 138.508 108.231 138.802 108.349 138.973 108.445 139.169 108.531 139.29 108.665 139.38 109.189 139.628 109.344 139.683 109.718 139.749 109.951 139.858 110.205 140.109 110.28 140.273 110.305 140.398 110.275 140.54 110.221 140.676 110.142 140.791 109.951 140.95 109.566 141.112 109.247 141.172 109.141 141.149 108.317 140.608 108.115 140.646 107.356 140.69 107.25 140.712 106.693 140.898 106.566 140.756 106.373 140.596 106.202 140.485 106.058 140.437 105.937 140.438 105.886 140.46 105.78 140.564 105.704 140.665 105.639 140.783 105.544 141.016 105.553 141.136 105.589 141.204 105.66 141.25 105.677 141.289 105.652 141.425 105.561 141.581 105.562 141.663 105.6 141.742 105.501 142.124 105.498 142.269 105.524 142.396 105.556 142.472 105.932 142.923 106.139 143.119 106.376 143.242 106.683 143.266 106.882 143.254 107.223 143.17 107.663 142.917 107.879 142.843 108.017 142.864 108.134 142.902 108.266 142.986 108.533 143.208 108.701 143.437 108.768 143.557 108.825 143.689 108.857 143.825 108.94 143.837 109.03 143.873 109.033 144.094 108.998 144.219 108.904 144.403 108.835 144.464 108.544 144.573 108.419 144.581 108.156 144.64 107.915 144.773 107.568 144.931 107.398 144.966 107.274 144.964 107.096 144.929 106.886 144.85 105.99 144.349 105.9 144.267 105.572 143.808 105.065 143.179 105.017 143.189 104.914 143.25 104.614 143.322 104.177 143.367 103.854 143.379 103.713 143.405 103.509 143.497 103.251 143.688 103.108 143.874 103.029 144.042 102.994 144.24 103.018 144.463 103.07 144.559 103.177 144.698 103.297 144.816 103.533 144.923 104.318 145.099 104.535 145.189 104.752 145.309 104.964 145.47 105.381 145.838 105.724 146.102 105.87 146.322 105.976 146.63 105.99 146.805 105.955 147.042 105.929 147.13 105.881 147.219 105.748 147.348 105.331 147.641 105.17 147.69 105.069 147.691 104.606 147.633 104.538 147.646 104.452 147.684 104.212 147.874 103.928 148.023 103.78 148.07 103.224 148.163 103.143 148.192 103.01 148.289 102.921 148.435 102.887 148.547 102.895 148.714 102.969 148.92 103.076 149.13 103.29 149.446 103.4 149.551 104.26 150.227 104.344 150.342 104.396 150.52 104.391 150.655 104.313 150.734 104.199 150.856 104.009 151.018 103.889 151.21 103.704 151.553 103.671 151.669 103.617 151.729 103.405 151.867 103.262 151.929 103.167 151.939 102.914 152.141 102.886 152.254 102.86 152.609 102.833 152.671 102.784 152.731 102.807 152.79 103.348 152.943 103.564 152.976 103.669 152.974 104.039 152.884 104.272 152.804 104.43 152.726 104.566 152.623 104.807 152.301 104.733 151.954 104.617 151.616 104.576 151.361 104.571 151.101 104.621 150.936 104.72 150.724 104.867 150.666 104.97 150.697 105.087 150.791 105.173 150.859 105.801 151.274 106.152 151.578 106.318 152.029 106.369 152.259 106.353 152.427 106.274 152.626 106.046 152.886 105.987 152.995 105.987 153.043 105.946 153.109 105.726 153.22 105.551 153.193 105.467 153.213 104.989 153.392 104.597 153.577 104.503 153.571 104.349 153.484 104.12 153.55 103.896 153.529 103.798 153.583 103.716 153.676 103.612 153.873 103.596 153.96 103.602 154.055 103.63 154.113 103.732 154.227 104.146 154.555 104.577 154.799 104.728 154.863 104.9 154.911 105.274 154.939 105.671 154.883 106.198 154.631 106.497 154.431 106.697 154.218 106.937 153.89 107.061 153.559 107.057 153.266 106.992 153.049 106.99 152.978 107.015 152.839 107.089 152.658 107.172 152.527 107.326 152.339 107.467 152.246 107.59 152.194 107.689 152.188 107.899 152.213 107.988 152.261 108.136 152.386 108.203 152.562 108.187 153.158 108.062 153.425 107.666 153.971 107.193 154.336 106.871 154.643 106.71 154.859 106.295 155.479 106.152 155.612 105.694 155.921 105.645 155.97 105.632 156.009 105.67 156.456 105.642 156.582 105.598 156.669 105.588 156.745 105.655 157.249 105.651 157.776 105.698 157.881 106.139 158.466 106.139 158.663 106.062 158.885 106.362 159.115 106.392 159.165 106.48 159.441 106.594 159.691 106.729 159.839 106.912 159.97 106.943 159.968 107.009 159.845 107.075 159.528 107.174 159.373 107.209 159.284 107.337 158.701 107.411 158.526 107.485 158.43 107.568 158.356 107.749 158.264 107.917 158.218 108.17 158.228 108.363 158.281 108.491 158.375 108.582 158.51 108.629 158.666 108.618 158.838 108.581 158.996 108.507 159.189 108.422 159.503 108.309 159.685 108.012 159.998 107.96 160.154 107.866 160.156 107.794 160.257 107.806 160.356 107.702 160.374 107.594 160.35 107.547 160.385 107.547 160.478 107.534 160.502 107.435 160.559 107.341 160.558 107.167 160.588 107.222 160.967 107.311 161.384 107.39 162.014 107.375 162.694 107.354 162.908 107.293 163.287 107.224 163.484 107.122 163.589 106.784 163.772 106.487 163.834 105.953 163.861 105.598 163.836 105.385 163.804 105.339 163.764 105.304 163.647 105.083 163.428 105.042 163.408 104.806 163.378 104.373 163.412 104.219 163.479 104.084 163.588 104.019 163.66 103.822 164.002 103.813 164.14 103.832 164.555 103.842 164.606 103.871 164.651 103.999 164.736 104.459 164.957 104.644 165.196 104.68 165.279 104.742 165.332 104.912 165.391 105.072 165.412 105.401 165.554 106.167 166.177 106.271 166.354 106.299 166.469 106.296 166.519 106.203 166.802 106.136 167.098 106.031 167.266 105.777 167.438 105.626 167.491 105.403 167.524 105.209 167.622 105.02 167.76 104.901 168.058 104.907 168.315 101.9 168.28 101.311 168.283 100.472 168.274 100.153 168.271 100.076 168.27 100.035 168.27 99.9324 168.268 99.8338 168.264 98.5268 168.255 97.024 168.247 96.7104 168.244 96.1759 168.253 95.0877 168.241 94.7552 168.22 92.9504 168.218 92.5606 168.215 92.3383 168.231 92.3332 168.229 91.4459 168.228 91.1842 168.222 90.909 168.225 87.6004 168.192 87.0069 168.212 83.3579 168.186 81.0825 168.193 81.0227 168.197 77.4627 168.17 72.7908 168.138 70.6683 168.101 69.3544 168.093 68.5348 168.083 68.3091 168.08 65.286 168.034 64.3249 168.028 64.2524 168.028 57.9457 167.952 57.8059 167.949 57.573 167.951 57.5291 167.95 57.2797 167.95 55.355 167.933 54.3135 167.904 53.9099 167.89 53.9038 167.889 53.6032 167.887 53.1979 167.889 50.7954 167.863 50.0483 167.849 47.0231 167.828 46.9475 167.824 46.6964 167.823 46.1022 167.828 46.0881 167.829 44.4802 167.825 43.1718 167.822 42.617 167.806 41.9194 167.82 39.8051 167.815 39.7986 167.814 38.8272 167.808 37.7094 167.812 34.9769 167.798 34.2943 167.804 34.2521 167.805 33.3381 167.798 33.2181 167.797 33.0181 167.797 27.1898 167.768 24.4156 167.771 18.0357 167.777 17.9291 167.78 17.6904 167.78 17.52 167.778 17.4738 167.777 17.4716 165.63 17.4767 165.158 17.4725 163.69 17.4704 163.537 17.4671 163.348 17.4813 162.748 17.4765 161.339 17.476 161.236 17.4765 160.788 17.4809 159.838 17.4726 159.541 17.4712 159.157 17.473 158.788 17.4707 156.67 17.4707 156.068 17.4707 155.898 17.4688 155.66 17.4767 155.216 17.4711 154.982 17.4762 153.461 17.4731 153.075 17.4731 152.903 17.467 151.668 17.4642 150.927 17.4724 150.855 17.4613 149.09 17.4597 148.763 17.459 148.733 17.3804 148.767 17.2535 148.775 17.2028 148.721 17.0747 148.788 16.8985 148.822 16.7895 148.782 16.6797 148.692 16.5866 148.676 16.5359 148.605 16.5384 148.517 16.5999 148.467 16.7134 148.421 16.7529 148.422 16.9202 148.486 16.9606 148.483 17.0642 148.42 17.0879 148.388 17.0747 148.196 17.0595 148.175 16.9171 148.14 16.748 148.136 16.719 148.093 16.7044 148.027 16.696 147.97 16.6668 147.948 16.6401 147.934 16.611 147.924 16.6001 147.932 16.5904 147.948 16.5904 147.971 16.5844 148.004 16.571 148.017 16.268 147.9 16.0765 147.907 15.8182 147.964 15.7371 148.005 15.6439 148.085 15.3501 148.205 15.1355 148.205 15.1218 148.259 15.1107 148.436 15.0451 148.703 15.0141 148.739 14.9229 148.791 14.8694 148.78 14.7866 148.709 14.736 148.529 14.6977 148.126 14.6724 148.06 14.6449 148.048 14.6201 148.062 14.4213 148.258 14.3655 148.277 14.2658 148.252 14.1766 148.155 14.1675 148.116 14.1826 148.033 14.2358 147.968 14.3524 147.897 14.4328 147.82 14.4685 147.753 14.4591 147.689 14.3915 147.664 14.3409 147.668 14.2593 147.732 14.141 147.885 14.0147 147.891 13.8781 147.765 13.8558 147.707 13.884 147.453 13.848 147.42 13.4207 147.342 13.2823 147.287 13.1902 147.212 12.9781 147.471 12.8695 147.635 12.8065 147.677 12.7088 147.7 12.5922 147.71 12.5253 147.69 12.3679 147.626 12.3062 147.614 12.2626 147.625 12.1786 147.713 12.1722 147.766 12.2107 147.868 12.3569 147.962 12.4075 147.972 12.4762 147.941 12.5716 147.918 12.6676 147.888 12.8117 147.926 12.8715 147.965 12.9297 148.082 13.0087 148.368 12.9647 148.539 12.9064 148.594 12.8108 148.63 12.7676 148.626 12.7169 148.596 12.6636 148.534 12.592 148.221 12.53 148.197 12.4557 148.208 12.2878 148.344 12.1171 148.596 12.0046 148.668 11.8992 148.71 11.7334 148.739 11.5493 148.718 11.1757 148.572 11.134 148.521 11.1123 148.44 11.1108 148.389 11.148 148.267 11.3529 147.97 11.52 147.857 11.5471 147.819 11.5817 147.706 11.5961 147.524 11.5776 147.473 11.4802 147.397 11.4012 147.391 11.3053 147.412 11.1009 147.519 10.9446 147.649 10.794 147.834 10.7055 147.969 10.5479 148.285 10.5441 148.341 10.5131 148.401 10.4379 148.504 10.4036 148.529 10.2975 148.562 10.0398 148.557 9.98301 148.54 9.93863 148.496 9.91472 148.331 9.9547 148.173 10.2039 147.99 10.2515 147.921 10.2441 147.84 10.1894 147.704 10.161 147.671 10.0564 147.652 9.99245 147.662 9.86697 147.724 9.71095 147.874 9.63099 147.989 9.55336 148.159 9.44385 148.463 9.47318 148.539 9.46727 148.613 9.37085 148.754 9.06967 148.855 8.94302 148.82 8.73239 148.718 8.6946 148.694 8.65297 148.622 8.63195 148.547 8.61722 148.365 8.60018 148.327 8.49438 148.202 8.42887 148.174 8.32414 148.175 8.27887 148.194 8.06854 148.378 8.06188 148.434 8.22487 148.736 8.22202 148.775 8.17455 148.873 7.96182 149.058 7.8699 149.057 7.79752 149.007 7.73837 148.995 7.4861 148.993 7.43156 149.012 7.18008 149.028 7.04577 148.996 6.94155 148.93 6.84864 148.773 6.68499 148.657 6.64892 148.617 6.64137 148.561 6.64642 148.459 6.702 148.373 6.78533 148.31 6.8552 148.266 6.98604 148.258 7.15373 148.203 7.228 148.135 7.27447 148.05 7.29883 147.932 7.28921 147.846 7.24143 147.717 7.14302 147.622 7.05061 147.671 6.70368 148.04 6.52135 148.154 6.35238 148.162 6.2529 148.144 6.22312 148.12 5.83328 147.509 5.78478 147.405 5.70997 147.34 5.42191 147.231 5.36053 147.327 5.33541 147.336 5.13031 147.348 5.05405 147.332 4.98188 147.301 4.85314 147.084 4.55368 147.042 4.46049 146.965 4.43551 146.926 4.42967 146.871 4.51218 146.76 4.72842 146.643 4.95839 146.478 5.01335 146.413 5.03269 146.347 5.02094 146.211 4.94362 146.2 4.79073 146.146 4.7651 146.111 4.71626 145.913 4.83538 145.858 5.15041 145.785 5.17888 145.722 5.19843 145.581 5.14477 145.488 4.95684 145.411 4.82381 145.403 4.75524 145.458 4.67219 145.672 4.61479 145.721 4.30055 145.625 4.15168 145.63 4.01304 145.664 4.02208 145.11 4.02359 144.748 4.05423 143.868 4.05131 143.736 4.07487 143.027 4.07384 142.834 4.10435 141.619 4.10462 141.611 4.1072 141.508 4.11008 141.413 4.1356 140.237 4.14467 139.996 4.1502 139.747 4.15041 139.739 4.17414 138.758 4.19297 137.997 4.22217 136.923 4.22677 136.913 4.27101 134.887 4.28159 134.309 4.28406 134.181 4.34672 131.938 4.34672 131.859 4.34672 131.858 4.62173 119.936 4.63454 119.666 4.67249 118.104 4.68345 117.679 4.68785 117.494 4.76448 114.311 4.79767 112.94 4.79784 112.846 4.8754 109.686 4.87447 109.396 5.09624 101.674 5.09909 101.554 5.10135 101.458 5.11458 100.951 5.13196 100.394 5.1311 100.263 5.12605 100.201 5.3698 92.0384 5.38433 91.707 5.42091 90.2375 5.42218 90.1365 5.4419 89.5745 5.43592 89.3406 5.4351 89.2049 5.45375 88.7924 5.46052 88.7044 5.48085 87.9752 5.47491 87.6705 5.48085 87.5633 5.51074 87.2748 5.53454 86.4992 5.53774 86.3906 5.54959 86.3312 5.55069 85.907 5.55405 85.7603 5.5861 85.2114 5.656 83.1469 5.64992 82.9821 5.66511 82.9013 5.60736 82.6561 5.62955 82.4905 5.59218 82.2494 5.67424 81.9966 5.11259 78.2418 4.69857 75.0874 4.6749 74.9184 4.66398 74.8579 4.63917 74.6697 4.41504 73.0343 3.96107 69.8136 3.94208 69.6999 3.78547 68.4984 3.74941 68.2624 3.61276 67.3363 3.59449 67.2092 3.56776 66.9983 3.56052 66.9547 3.54842 66.8589 3.49223 66.4618 3.44888 66.1245 3.41228 65.8569 3.35183 65.4048 3.04974 63.3421 2.89514 62.1481 2.89514 62.1278 2.89587 62.1244 2.88748 62.0787 2.8439 61.7864 2.8349 61.7246 2.72786 60.9891 2.72352 60.9747 2.60906 60.1702 2.56119 59.8398 2.52454 59.623 2.49804 59.4334 2.13361 56.8678 2.12887 56.8307 1.72484 54.1013 1.67506 53.7447 1.58839 53.1271 1.56003 52.9299 1.41826 51.9259 1.40145 51.8204 1.32277 51.219 1.30803 51.1173 1.30222 51.0826 1.27389 50.8459 1.21627 50.4949 1.21676 50.4753 0.963992 48.6272 0.745265 46.9304 0.553004 45.3784 0.48429 44.8395 0.464869 44.722 0.380227 44.1034 0.191772 42.6342 0.124271 42.0873 0.0792616 41.7627 0 41.2269 1.78183 41.2238Z" fill="#347FC4" transform="matrix(1 0 0 1.00128 330 556)"/></g></g></g></g></svg>