<svg xmlns="http://www.w3.org/2000/svg" width="200" height="66" viewBox="0 0 200 66" fill="none"><path d="M55.784 14.016H61.016L75.656 48H68.744L65.576 40.224H50.84L47.768 48H41L55.784 14.016ZM63.464 35.04L58.232 21.216L52.904 35.04H63.464ZM74.6326 14.016H86.4406C88.0726 14.016 89.6406 14.176 91.1446 14.496C92.6806 14.784 94.0406 15.296 95.2246 16.032C96.4086 16.768 97.3526 17.76 98.0566 19.008C98.7606 20.256 99.1126 21.84 99.1126 23.76C99.1126 26.224 98.4246 28.288 97.0486 29.952C95.7046 31.616 93.7686 32.624 91.2406 32.976L100.265 48H92.9686L85.0966 33.6H80.6806V48H74.6326V14.016ZM85.3846 28.416C86.2486 28.416 87.1126 28.384 87.9766 28.32C88.8406 28.224 89.6246 28.032 90.3286 27.744C91.0646 27.424 91.6566 26.96 92.1046 26.352C92.5526 25.712 92.7766 24.832 92.7766 23.712C92.7766 22.72 92.5686 21.92 92.1526 21.312C91.7366 20.704 91.1926 20.256 90.5206 19.968C89.8486 19.648 89.0966 19.44 88.2646 19.344C87.4646 19.248 86.6806 19.2 85.9126 19.2H80.6806V28.416H85.3846ZM104.339 44.64C104.339 43.616 104.707 42.736 105.443 42C106.211 41.264 107.123 40.896 108.179 40.896C109.203 40.896 110.099 41.248 110.867 41.952C111.635 42.656 112.019 43.52 112.019 44.544C112.019 45.568 111.635 46.448 110.867 47.184C110.131 47.92 109.235 48.288 108.179 48.288C107.667 48.288 107.171 48.192 106.691 48C106.243 47.808 105.843 47.552 105.491 47.232C105.139 46.912 104.851 46.528 104.627 46.08C104.435 45.632 104.339 45.152 104.339 44.64ZM142.254 24.96V45.936C142.254 48.016 141.998 49.888 141.486 51.552C140.974 53.248 140.174 54.672 139.086 55.824C138.03 57.008 136.686 57.92 135.054 58.56C133.422 59.2 131.486 59.52 129.246 59.52C127.102 59.52 125.07 59.248 123.15 58.704C121.23 58.16 119.454 57.168 117.822 55.728L121.278 51.024C122.43 52.08 123.63 52.896 124.878 53.472C126.126 54.048 127.566 54.336 129.198 54.336C130.574 54.336 131.726 54.144 132.654 53.76C133.614 53.376 134.366 52.848 134.91 52.176C135.486 51.504 135.886 50.688 136.11 49.728C136.366 48.8 136.494 47.76 136.494 46.608V44.928H136.398C135.566 46.048 134.462 46.896 133.086 47.472C131.71 48.016 130.302 48.288 128.862 48.288C127.134 48.288 125.566 47.984 124.158 47.376C122.75 46.736 121.534 45.888 120.51 44.832C119.518 43.776 118.75 42.528 118.206 41.088C117.662 39.648 117.39 38.112 117.39 36.48C117.39 34.784 117.646 33.2 118.158 31.728C118.67 30.256 119.422 28.976 120.414 27.888C121.406 26.8 122.59 25.952 123.966 25.344C125.374 24.704 126.974 24.384 128.766 24.384C130.398 24.384 131.918 24.704 133.326 25.344C134.734 25.984 135.854 27.008 136.686 28.416H136.782V24.96H142.254ZM129.966 29.568C128.942 29.568 128.014 29.744 127.182 30.096C126.35 30.416 125.63 30.88 125.022 31.488C124.446 32.064 123.982 32.784 123.63 33.648C123.31 34.48 123.15 35.408 123.15 36.432C123.15 37.36 123.31 38.224 123.63 39.024C123.982 39.824 124.462 40.528 125.07 41.136C125.678 41.744 126.398 42.224 127.23 42.576C128.062 42.928 128.958 43.104 129.918 43.104C130.974 43.104 131.918 42.928 132.75 42.576C133.614 42.224 134.334 41.76 134.91 41.184C135.518 40.576 135.982 39.856 136.302 39.024C136.622 38.192 136.782 37.296 136.782 36.336C136.782 34.32 136.174 32.688 134.958 31.44C133.742 30.192 132.078 29.568 129.966 29.568ZM147.624 36.48C147.624 34.656 147.944 33.008 148.584 31.536C149.256 30.032 150.152 28.752 151.272 27.696C152.392 26.64 153.72 25.824 155.256 25.248C156.792 24.672 158.424 24.384 160.152 24.384C161.88 24.384 163.512 24.672 165.048 25.248C166.584 25.824 167.912 26.64 169.032 27.696C170.152 28.752 171.032 30.032 171.672 31.536C172.344 33.008 172.68 34.656 172.68 36.48C172.68 38.304 172.344 39.968 171.672 41.472C171.032 42.944 170.152 44.208 169.032 45.264C167.912 46.32 166.584 47.136 165.048 47.712C163.512 48.288 161.88 48.576 160.152 48.576C158.424 48.576 156.792 48.288 155.256 47.712C153.72 47.136 152.392 46.32 151.272 45.264C150.152 44.208 149.256 42.944 148.584 41.472C147.944 39.968 147.624 38.304 147.624 36.48ZM153.384 36.48C153.384 37.376 153.528 38.24 153.816 39.072C154.136 39.904 154.584 40.64 155.16 41.28C155.768 41.92 156.488 42.432 157.32 42.816C158.152 43.2 159.096 43.392 160.152 43.392C161.208 43.392 162.152 43.2 162.984 42.816C163.816 42.432 164.52 41.92 165.096 41.28C165.704 40.64 166.152 39.904 166.44 39.072C166.76 38.24 166.92 37.376 166.92 36.48C166.92 35.584 166.76 34.72 166.44 33.888C166.152 33.056 165.704 32.32 165.096 31.68C164.52 31.04 163.816 30.528 162.984 30.144C162.152 29.76 161.208 29.568 160.152 29.568C159.096 29.568 158.152 29.76 157.32 30.144C156.488 30.528 155.768 31.04 155.16 31.68C154.584 32.32 154.136 33.056 153.816 33.888C153.528 34.72 153.384 35.584 153.384 36.48ZM174.953 24.96H181.241L187.385 41.088H187.481L193.673 24.96H199.577L190.505 48H184.361L174.953 24.96Z" fill="#263C7E"></path><path d="M55.784 14.016V12.516H54.8008L54.4085 13.4176L55.784 14.016ZM61.016 14.016L62.3936 13.4225L62.0031 12.516H61.016V14.016ZM75.656 48V49.5H77.9355L77.0336 47.4065L75.656 48ZM68.744 48L67.3549 48.5659L67.7354 49.5H68.744V48ZM65.576 40.224L66.9651 39.6581L66.5846 38.724H65.576V40.224ZM50.84 40.224V38.724H49.8198L49.4449 39.6729L50.84 40.224ZM47.768 48V49.5H48.7882L49.1631 48.5511L47.768 48ZM41 48L39.6245 47.4016L38.7117 49.5H41V48ZM63.464 35.04V36.54H65.6355L64.8669 34.509L63.464 35.04ZM58.232 21.216L59.6349 20.685L58.2447 17.012L56.8324 20.6766L58.232 21.216ZM52.904 35.04L51.5044 34.5006L50.7183 36.54H52.904V35.04ZM55.784 15.516H61.016V12.516H55.784V15.516ZM59.6384 14.6095L74.2784 48.5935L77.0336 47.4065L62.3936 13.4225L59.6384 14.6095ZM75.656 46.5H68.744V49.5H75.656V46.5ZM70.1331 47.4341L66.9651 39.6581L64.1869 40.7899L67.3549 48.5659L70.1331 47.4341ZM65.576 38.724H50.84V41.724H65.576V38.724ZM49.4449 39.6729L46.3729 47.4489L49.1631 48.5511L52.2351 40.7751L49.4449 39.6729ZM47.768 46.5H41V49.5H47.768V46.5ZM42.3755 48.5984L57.1595 14.6144L54.4085 13.4176L39.6245 47.4016L42.3755 48.5984ZM64.8669 34.509L59.6349 20.685L56.8291 21.747L62.0611 35.571L64.8669 34.509ZM56.8324 20.6766L51.5044 34.5006L54.3036 35.5794L59.6316 21.7554L56.8324 20.6766ZM52.904 36.54H63.464V33.54H52.904V36.54ZM74.6326 14.016V12.516H73.1326V14.016H74.6326ZM91.1446 14.496L90.8325 15.9632L90.8503 15.9669L90.8682 15.9703L91.1446 14.496ZM98.0566 19.008L99.3631 18.271V18.271L98.0566 19.008ZM97.0486 29.952L95.8927 28.9961L95.8871 29.0028L95.8817 29.0095L97.0486 29.952ZM91.2406 32.976L91.0338 31.4903L88.7864 31.8032L89.9548 33.7483L91.2406 32.976ZM100.265 48V49.5H102.915L101.551 47.2277L100.265 48ZM92.9686 48L91.6525 48.7195L92.0791 49.5H92.9686V48ZM85.0966 33.6L86.4128 32.8805L85.9861 32.1H85.0966V33.6ZM80.6806 33.6V32.1H79.1806V33.6H80.6806ZM80.6806 48V49.5H82.1806V48H80.6806ZM74.6326 48H73.1326V49.5H74.6326V48ZM87.9766 28.32L88.0874 29.8159L88.1149 29.8139L88.1423 29.8108L87.9766 28.32ZM90.3286 27.744L90.8966 29.1323L90.9117 29.1261L90.9267 29.1196L90.3286 27.744ZM92.1046 26.352L93.3122 27.2418L93.323 27.2271L93.3335 27.2122L92.1046 26.352ZM92.1526 21.312L93.3906 20.465L93.3906 20.465L92.1526 21.312ZM90.5206 19.968L89.8757 21.3223L89.9025 21.335L89.9297 21.3467L90.5206 19.968ZM88.2646 19.344L88.0859 20.8333L88.0927 20.8341L88.2646 19.344ZM80.6806 19.2V17.7H79.1806V19.2H80.6806ZM80.6806 28.416H79.1806V29.916H80.6806V28.416ZM74.6326 15.516H86.4406V12.516H74.6326V15.516ZM86.4406 15.516C87.9741 15.516 89.4372 15.6663 90.8325 15.9632L91.4568 13.0288C89.8441 12.6857 88.1712 12.516 86.4406 12.516V15.516ZM90.8682 15.9703C92.2434 16.2282 93.4246 16.6793 94.4327 17.3059L96.0165 14.7581C94.6567 13.9127 93.1178 13.3398 91.4211 13.0217L90.8682 15.9703ZM94.4327 17.3059C95.3967 17.9052 96.1663 18.71 96.7502 19.745L99.3631 18.271C98.5389 16.81 97.4205 15.6308 96.0165 14.7581L94.4327 17.3059ZM96.7502 19.745C97.2914 20.7044 97.6126 22.0137 97.6126 23.76H100.613C100.613 21.6663 100.23 19.8076 99.3631 18.271L96.7502 19.745ZM97.6126 23.76C97.6126 25.9271 97.0152 27.6386 95.8927 28.9961L98.2046 30.9079C99.834 28.9374 100.613 26.5209 100.613 23.76H97.6126ZM95.8817 29.0095C94.8221 30.3214 93.2618 31.1801 91.0338 31.4903L91.4475 34.4617C94.2754 34.0679 96.5871 32.9106 98.2155 30.8945L95.8817 29.0095ZM89.9548 33.7483L98.9788 48.7723L101.551 47.2277L92.5265 32.2037L89.9548 33.7483ZM100.265 46.5H92.9686V49.5H100.265V46.5ZM94.2848 47.2805L86.4128 32.8805L83.7805 34.3195L91.6525 48.7195L94.2848 47.2805ZM85.0966 32.1H80.6806V35.1H85.0966V32.1ZM79.1806 33.6V48H82.1806V33.6H79.1806ZM80.6806 46.5H74.6326V49.5H80.6806V46.5ZM76.1326 48V14.016H73.1326V48H76.1326ZM85.3846 29.916C86.2857 29.916 87.1867 29.8826 88.0874 29.8159L87.8658 26.8241C87.0386 26.8854 86.2116 26.916 85.3846 26.916V29.916ZM88.1423 29.8108C89.1252 29.7016 90.047 29.4799 90.8966 29.1323L89.7607 26.3557C89.2022 26.5841 88.5561 26.7464 87.811 26.8292L88.1423 29.8108ZM90.9267 29.1196C91.8894 28.7011 92.6975 28.076 93.3122 27.2418L90.897 25.4622C90.6157 25.844 90.2399 26.1469 89.7305 26.3684L90.9267 29.1196ZM93.3335 27.2122C94.0194 26.2323 94.2766 25.0117 94.2766 23.712H91.2766C91.2766 24.6523 91.0859 25.1917 90.8758 25.4918L93.3335 27.2122ZM94.2766 23.712C94.2766 22.5203 94.0273 21.3955 93.3906 20.465L90.9147 22.159C91.11 22.4445 91.2766 22.9197 91.2766 23.712H94.2766ZM93.3906 20.465C92.8151 19.6238 92.0474 18.9904 91.1115 18.5893L89.9297 21.3467C90.3378 21.5216 90.6582 21.7842 90.9147 22.159L93.3906 20.465ZM91.1655 18.6137C90.327 18.2144 89.4123 17.9665 88.4366 17.8539L88.0927 20.8341C88.781 20.9135 89.3702 21.0816 89.8757 21.3223L91.1655 18.6137ZM88.4433 17.8547C87.5869 17.7519 86.7432 17.7 85.9126 17.7V20.7C86.6181 20.7 87.3423 20.7441 88.0859 20.8333L88.4433 17.8547ZM85.9126 17.7H80.6806V20.7H85.9126V17.7ZM79.1806 19.2V28.416H82.1806V19.2H79.1806ZM80.6806 29.916H85.3846V26.916H80.6806V29.916ZM105.443 42L104.405 40.917L104.394 40.9281L104.382 40.9393L105.443 42ZM110.867 47.184L109.829 46.101L109.818 46.1121L109.806 46.1233L110.867 47.184ZM106.691 48L106.1 49.3787L106.117 49.3859L106.134 49.3927L106.691 48ZM105.491 47.232L106.5 46.1221L105.491 47.232ZM104.627 46.08L103.248 46.6709L103.266 46.7114L103.285 46.7508L104.627 46.08ZM105.839 44.64C105.839 44.0211 106.044 43.5206 106.504 43.0607L104.382 40.9393C103.37 41.9514 102.839 43.2109 102.839 44.64H105.839ZM106.481 43.083C106.972 42.6124 107.513 42.396 108.179 42.396V39.396C106.733 39.396 105.45 39.9156 104.405 40.917L106.481 43.083ZM108.179 42.396C108.821 42.396 109.357 42.6024 109.853 43.0577L111.881 40.8463C110.841 39.8936 109.585 39.396 108.179 39.396V42.396ZM109.853 43.0577C110.318 43.4832 110.519 43.9487 110.519 44.544H113.519C113.519 43.0913 112.952 41.8288 111.881 40.8463L109.853 43.0577ZM110.519 44.544C110.519 45.1416 110.315 45.6356 109.829 46.101L111.905 48.267C112.955 47.2604 113.519 45.9944 113.519 44.544H110.519ZM109.806 46.1233C109.356 46.5735 108.844 46.788 108.179 46.788V49.788C109.626 49.788 110.906 49.2665 111.928 48.2447L109.806 46.1233ZM108.179 46.788C107.86 46.788 107.553 46.7291 107.248 46.6073L106.134 49.3927C106.789 49.6549 107.474 49.788 108.179 49.788V46.788ZM107.282 46.6213C106.983 46.4934 106.726 46.3271 106.5 46.1221L104.482 48.3419C104.96 48.7769 105.503 49.1226 106.1 49.3787L107.282 46.6213ZM106.5 46.1221C106.292 45.9332 106.114 45.7004 105.969 45.4092L103.285 46.7508C103.588 47.3556 103.986 47.8908 104.482 48.3419L106.5 46.1221ZM106.006 45.4891C105.898 45.2372 105.839 44.9593 105.839 44.64H102.839C102.839 45.3447 102.972 46.0268 103.248 46.6709L106.006 45.4891ZM142.254 24.96H143.754V23.46H142.254V24.96ZM141.486 51.552L140.052 51.1109L140.05 51.1185L141.486 51.552ZM139.086 55.824L137.996 54.7941L137.981 54.8096L137.967 54.8256L139.086 55.824ZM135.054 58.56L135.602 59.9565L135.054 58.56ZM123.15 58.704L123.559 57.2608L123.15 58.704ZM117.822 55.728L116.613 54.8399L115.801 55.9453L116.83 56.8528L117.822 55.728ZM121.278 51.024L122.292 49.9183L121.059 48.7885L120.069 50.1359L121.278 51.024ZM124.878 53.472L124.25 54.8339L124.878 53.472ZM132.654 53.76L132.097 52.3673L132.089 52.3706L132.081 52.374L132.654 53.76ZM134.91 52.176L133.771 51.1998L133.758 51.2158L133.744 51.2322L134.91 52.176ZM136.11 49.728L134.664 49.3291L134.656 49.358L134.649 49.3872L136.11 49.728ZM136.494 44.928H137.994V43.428H136.494V44.928ZM136.398 44.928V43.428H135.644L135.194 44.0335L136.398 44.928ZM133.086 47.472L133.638 48.8669L133.652 48.8614L133.665 48.8557L133.086 47.472ZM124.158 47.376L123.537 48.7416L123.55 48.7474L123.563 48.7531L124.158 47.376ZM120.51 44.832L119.417 45.859L119.425 45.8677L119.433 45.8762L120.51 44.832ZM118.206 41.088L119.609 40.5579L118.206 41.088ZM118.158 31.728L116.741 31.2352L118.158 31.728ZM120.414 27.888L119.306 26.8774L120.414 27.888ZM123.966 25.344L124.572 26.716L124.58 26.7128L124.587 26.7095L123.966 25.344ZM133.326 25.344L133.947 23.9784H133.947L133.326 25.344ZM136.686 28.416L135.395 29.1791L135.83 29.916H136.686V28.416ZM136.782 28.416V29.916H138.282V28.416H136.782ZM136.782 24.96V23.46H135.282V24.96H136.782ZM127.182 30.096L127.721 31.496L127.744 31.4871L127.767 31.4774L127.182 30.096ZM125.022 31.488L123.961 30.4273L125.022 31.488ZM123.63 33.648L122.241 33.0821L122.235 33.0957L122.23 33.1095L123.63 33.648ZM123.63 39.024L122.237 39.5811L122.247 39.6048L122.257 39.6281L123.63 39.024ZM125.07 41.136L126.131 40.0753L125.07 41.136ZM127.23 42.576L127.815 41.1945L127.23 42.576ZM132.75 42.576L132.184 41.1869L132.175 41.1906L132.166 41.1945L132.75 42.576ZM134.91 41.184L133.849 40.1233L134.91 41.184ZM136.302 39.024L137.702 39.5625L136.302 39.024ZM134.958 31.44L136.032 30.3932L134.958 31.44ZM140.754 24.96V45.936H143.754V24.96H140.754ZM140.754 45.936C140.754 47.8946 140.513 49.6144 140.052 51.1109L142.92 51.9931C143.483 50.1616 143.754 48.1374 143.754 45.936H140.754ZM140.05 51.1185C139.597 52.6182 138.906 53.8305 137.996 54.7941L140.177 56.8539C141.443 55.5135 142.351 53.8778 142.922 51.9855L140.05 51.1185ZM137.967 54.8256C137.083 55.816 135.943 56.6003 134.506 57.1635L135.602 59.9565C137.43 59.2397 138.977 58.2 140.206 56.8224L137.967 54.8256ZM134.506 57.1635C133.09 57.719 131.348 58.02 129.246 58.02V61.02C131.624 61.02 133.754 60.681 135.602 59.9565L134.506 57.1635ZM129.246 58.02C127.23 58.02 125.336 57.7644 123.559 57.2608L122.741 60.1472C124.804 60.7316 126.974 61.02 129.246 61.02V58.02ZM123.559 57.2608C121.874 56.7834 120.294 55.9085 118.815 54.6032L116.83 56.8528C118.614 58.4276 120.586 59.5366 122.741 60.1472L123.559 57.2608ZM119.031 56.6161L122.487 51.9121L120.069 50.1359L116.613 54.8399L119.031 56.6161ZM120.265 52.1297C121.515 53.2764 122.843 54.1847 124.25 54.8339L125.507 52.1101C124.417 51.6073 123.345 50.8836 122.292 49.9183L120.265 52.1297ZM124.25 54.8339C125.728 55.5163 127.389 55.836 129.198 55.836V52.836C127.743 52.836 126.524 52.5797 125.507 52.1101L124.25 54.8339ZM129.198 55.836C130.703 55.836 132.064 55.6276 133.228 55.146L132.081 52.374C131.388 52.6604 130.446 52.836 129.198 52.836V55.836ZM133.211 55.1527C134.363 54.6922 135.342 54.0266 136.076 53.1198L133.744 51.2322C133.39 51.6694 132.866 52.0598 132.097 52.3673L133.211 55.1527ZM136.049 53.1522C136.799 52.2773 137.298 51.2363 137.571 50.0688L134.649 49.3872C134.474 50.1397 134.173 50.7307 133.771 51.1998L136.049 53.1522ZM137.556 50.1269C137.854 49.0464 137.994 47.8692 137.994 46.608H134.994C134.994 47.6508 134.878 48.5536 134.664 49.3291L137.556 50.1269ZM137.994 46.608V44.928H134.994V46.608H137.994ZM136.494 43.428H136.398V46.428H136.494V43.428ZM135.194 44.0335C134.534 44.9223 133.652 45.6089 132.507 46.0883L133.665 48.8557C135.272 48.1831 136.598 47.1737 137.602 45.8225L135.194 44.0335ZM132.535 46.0771C131.329 46.5536 130.108 46.788 128.862 46.788V49.788C130.496 49.788 132.091 49.4784 133.638 48.8669L132.535 46.0771ZM128.862 46.788C127.313 46.788 125.951 46.5162 124.753 45.9989L123.563 48.7531C125.182 49.4518 126.955 49.788 128.862 49.788V46.788ZM124.779 46.0104C123.533 45.444 122.474 44.7022 121.587 43.7878L119.433 45.8762C120.595 47.0738 121.968 48.028 123.537 48.7416L124.779 46.0104ZM121.603 43.805C120.755 42.9015 120.088 41.8252 119.609 40.5579L116.803 41.6181C117.412 43.2308 118.282 44.6505 119.417 45.859L121.603 43.805ZM119.609 40.5579C119.133 39.2973 118.89 37.9419 118.89 36.48H115.89C115.89 38.2821 116.191 39.9987 116.803 41.6181L119.609 40.5579ZM118.89 36.48C118.89 34.937 119.123 33.5209 119.575 32.2208L116.741 31.2352C116.17 32.8791 115.89 34.631 115.89 36.48H118.89ZM119.575 32.2208C120.024 30.9291 120.675 29.828 121.523 28.8986L119.306 26.8774C118.169 28.124 117.316 29.5829 116.741 31.2352L119.575 32.2208ZM121.523 28.8986C122.371 27.9681 123.383 27.2417 124.572 26.716L123.36 23.972C121.797 24.6623 120.441 25.6319 119.306 26.8774L121.523 28.8986ZM124.587 26.7095C125.771 26.1711 127.154 25.884 128.766 25.884V22.884C126.794 22.884 124.977 23.2369 123.345 23.9784L124.587 26.7095ZM128.766 25.884C130.196 25.884 131.503 26.163 132.705 26.7095L133.947 23.9784C132.333 23.245 130.6 22.884 128.766 22.884V25.884ZM132.705 26.7095C133.817 27.2147 134.71 28.0198 135.395 29.1791L137.978 27.6529C136.999 25.9962 135.651 24.7533 133.947 23.9784L132.705 26.7095ZM136.686 29.916H136.782V26.916H136.686V29.916ZM138.282 28.416V24.96H135.282V28.416H138.282ZM136.782 26.46H142.254V23.46H136.782V26.46ZM129.966 28.068C128.768 28.068 127.638 28.2745 126.598 28.7145L127.767 31.4774C128.391 31.2135 129.116 31.068 129.966 31.068V28.068ZM126.644 28.696C125.623 29.0885 124.723 29.6655 123.961 30.4273L126.083 32.5487C126.537 32.0945 127.077 31.7435 127.721 31.496L126.644 28.696ZM123.961 30.4273C123.225 31.1638 122.658 32.0596 122.241 33.0821L125.019 34.2139C125.307 33.5084 125.667 32.9642 126.083 32.5487L123.961 30.4273ZM122.23 33.1095C121.835 34.1369 121.65 35.2509 121.65 36.432H124.65C124.65 35.5651 124.785 34.8231 125.03 34.1865L122.23 33.1095ZM121.65 36.432C121.65 37.536 121.841 38.5906 122.237 39.5811L125.023 38.4669C124.779 37.8573 124.65 37.184 124.65 36.432H121.65ZM122.257 39.6281C122.683 40.5955 123.268 41.455 124.009 42.1967L126.131 40.0753C125.656 39.601 125.281 39.0525 125.003 38.4199L122.257 39.6281ZM124.009 42.1967C124.761 42.9481 125.645 43.5341 126.646 43.9575L127.815 41.1945C127.151 40.9139 126.595 40.5399 126.131 40.0753L124.009 42.1967ZM126.646 43.9575C127.674 44.3925 128.77 44.604 129.918 44.604V41.604C129.146 41.604 128.45 41.4635 127.815 41.1945L126.646 43.9575ZM129.918 44.604C131.141 44.604 132.289 44.3998 133.335 43.9575L132.166 41.1945C131.547 41.4562 130.807 41.604 129.918 41.604V44.604ZM133.316 43.9651C134.339 43.5486 135.234 42.9811 135.971 42.2447L133.849 40.1233C133.434 40.5389 132.89 40.8994 132.184 41.1869L133.316 43.9651ZM135.971 42.2447C136.733 41.4828 137.31 40.583 137.702 39.5625L134.902 38.4855C134.655 39.129 134.304 39.6692 133.849 40.1233L135.971 42.2447ZM137.702 39.5625C138.093 38.5458 138.282 37.4659 138.282 36.336H135.282C135.282 37.1261 135.151 37.8382 134.902 38.4855L137.702 39.5625ZM138.282 36.336C138.282 33.9951 137.564 31.9654 136.032 30.3932L133.884 32.4868C134.784 33.4106 135.282 34.6449 135.282 36.336H138.282ZM136.032 30.3932C134.476 28.7956 132.391 28.068 129.966 28.068V31.068C131.765 31.068 133.008 31.5884 133.884 32.4868L136.032 30.3932ZM148.584 31.536L147.215 30.9241L147.212 30.931L147.209 30.9379L148.584 31.536ZM151.272 27.696L152.302 28.7874L151.272 27.696ZM155.257 25.248L154.73 23.8435L155.257 25.248ZM165.049 25.248L165.575 23.8435L165.049 25.248ZM169.033 27.696L168.003 28.7874L169.033 27.696ZM171.673 31.536L170.292 32.1233L170.3 32.1412L170.308 32.1589L171.673 31.536ZM171.673 41.472L170.303 40.8601L170.3 40.867L170.297 40.8739L171.673 41.472ZM169.033 45.264L168.003 44.1726L169.033 45.264ZM165.049 47.712L164.522 46.3075L165.049 47.712ZM151.272 45.264L152.302 44.1726L151.272 45.264ZM148.584 41.472L147.204 42.0593L147.212 42.0772L147.22 42.0949L148.584 41.472ZM153.816 39.072L152.399 39.5627L152.407 39.5867L152.416 39.6105L153.816 39.072ZM155.16 41.28L154.046 42.2834L154.059 42.2985L154.073 42.3131L155.16 41.28ZM157.32 42.816L156.692 44.1779L157.32 42.816ZM165.096 41.28L164.009 40.2469L163.995 40.2615L163.982 40.2766L165.096 41.28ZM166.44 39.072L165.04 38.5335L165.031 38.5573L165.023 38.5813L166.44 39.072ZM166.44 33.888L165.023 34.3787L165.031 34.4027L165.04 34.4265L166.44 33.888ZM165.096 31.68L163.982 32.6834L163.995 32.6985L164.009 32.7131L165.096 31.68ZM157.32 30.144L156.692 28.7821L157.32 30.144ZM155.16 31.68L154.073 30.6469L154.059 30.6615L154.046 30.6766L155.16 31.68ZM153.816 33.888L152.416 33.3495L152.407 33.3733L152.399 33.3973L153.816 33.888ZM149.124 36.48C149.124 34.8338 149.413 33.3933 149.96 32.1341L147.209 30.9379C146.476 32.6227 146.124 34.4782 146.124 36.48H149.124ZM149.954 32.1479C150.551 30.8118 151.335 29.6983 152.302 28.7874L150.243 26.6046C148.97 27.8057 147.962 29.2522 147.215 30.9241L149.954 32.1479ZM152.302 28.7874C153.267 27.8769 154.421 27.1632 155.783 26.6525L154.73 23.8435C153.02 24.4848 151.518 25.4031 150.243 26.6046L152.302 28.7874ZM155.783 26.6525C157.142 26.143 158.595 25.884 160.152 25.884V22.884C158.254 22.884 156.443 23.201 154.73 23.8435L155.783 26.6525ZM160.152 25.884C161.71 25.884 163.163 26.143 164.522 26.6525L165.575 23.8435C163.862 23.201 162.051 22.884 160.152 22.884V25.884ZM164.522 26.6525C165.884 27.1632 167.038 27.8769 168.003 28.7874L170.062 26.6046C168.787 25.4031 167.285 24.4848 165.575 23.8435L164.522 26.6525ZM168.003 28.7874C168.964 29.6927 169.728 30.7978 170.292 32.1233L173.053 30.9487C172.337 29.2662 171.341 27.8113 170.062 26.6046L168.003 28.7874ZM170.308 32.1589C170.88 33.4119 171.18 34.8435 171.18 36.48H174.18C174.18 34.4685 173.809 32.6041 173.037 30.9131L170.308 32.1589ZM171.18 36.48C171.18 38.1159 170.88 39.5684 170.303 40.8601L173.042 42.0839C173.809 40.3676 174.18 38.4921 174.18 36.48H171.18ZM170.297 40.8739C169.734 42.1678 168.969 43.2618 168.003 44.1726L170.062 46.3554C171.336 45.1542 172.331 43.7202 173.048 42.0701L170.297 40.8739ZM168.003 44.1726C167.038 45.0831 165.884 45.7968 164.522 46.3075L165.575 49.1165C167.285 48.4752 168.787 47.5569 170.062 46.3554L168.003 44.1726ZM164.522 46.3075C163.163 46.817 161.71 47.076 160.152 47.076V50.076C162.051 50.076 163.862 49.759 165.575 49.1165L164.522 46.3075ZM160.152 47.076C158.595 47.076 157.142 46.817 155.783 46.3075L154.73 49.1165C156.443 49.759 158.254 50.076 160.152 50.076V47.076ZM155.783 46.3075C154.421 45.7968 153.267 45.0831 152.302 44.1726L150.243 46.3554C151.518 47.5569 153.02 48.4752 154.73 49.1165L155.783 46.3075ZM152.302 44.1726C151.33 43.2564 150.545 42.1539 149.949 40.8491L147.22 42.0949C147.968 43.7341 148.975 45.1596 150.243 46.3554L152.302 44.1726ZM149.965 40.8847C149.412 39.5868 149.124 38.1256 149.124 36.48H146.124C146.124 38.4824 146.477 40.3492 147.204 42.0593L149.965 40.8847ZM151.884 36.48C151.884 37.54 152.055 38.57 152.399 39.5627L155.234 38.5813C155.002 37.91 154.884 37.212 154.884 36.48H151.884ZM152.416 39.6105C152.8 40.6074 153.343 41.5024 154.046 42.2834L156.275 40.2766C155.826 39.7776 155.473 39.2006 155.217 38.5335L152.416 39.6105ZM154.073 42.3131C154.817 43.096 155.694 43.7174 156.692 44.1779L157.949 41.4541C157.283 41.1466 156.72 40.744 156.248 40.2469L154.073 42.3131ZM156.692 44.1779C157.749 44.6658 158.912 44.892 160.152 44.892V41.892C159.281 41.892 158.556 41.7342 157.949 41.4541L156.692 44.1779ZM160.152 44.892C161.393 44.892 162.556 44.6658 163.613 44.1779L162.356 41.4541C161.749 41.7342 161.024 41.892 160.152 41.892V44.892ZM163.613 44.1779C164.618 43.7142 165.491 43.0843 166.211 42.2834L163.982 40.2766C163.55 40.7557 163.015 41.1498 162.356 41.4541L163.613 44.1779ZM166.184 42.3131C166.939 41.5183 167.5 40.5975 167.858 39.5627L165.023 38.5813C164.805 39.2105 164.47 39.7617 164.009 40.2469L166.184 42.3131ZM167.841 39.6105C168.227 38.6057 168.42 37.5591 168.42 36.48H165.42C165.42 37.1929 165.294 37.8743 165.04 38.5335L167.841 39.6105ZM168.42 36.48C168.42 35.4009 168.227 34.3543 167.841 33.3495L165.04 34.4265C165.294 35.0857 165.42 35.7671 165.42 36.48H168.42ZM167.858 33.3973C167.5 32.3625 166.939 31.4417 166.184 30.6469L164.009 32.7131C164.47 33.1983 164.805 33.7495 165.023 34.3787L167.858 33.3973ZM166.211 30.6766C165.491 29.8757 164.618 29.2458 163.613 28.7821L162.356 31.5059C163.015 31.8102 163.55 32.2043 163.982 32.6834L166.211 30.6766ZM163.613 28.7821C162.556 28.2942 161.393 28.068 160.152 28.068V31.068C161.024 31.068 161.749 31.2258 162.356 31.5059L163.613 28.7821ZM160.152 28.068C158.912 28.068 157.749 28.2942 156.692 28.7821L157.949 31.5059C158.556 31.2258 159.281 31.068 160.152 31.068V28.068ZM156.692 28.7821C155.694 29.2425 154.817 29.864 154.073 30.6469L156.248 32.7131C156.72 32.216 157.283 31.8134 157.949 31.5059L156.692 28.7821ZM154.046 30.6766C153.343 31.4576 152.8 32.3526 152.416 33.3495L155.217 34.4265C155.473 33.7594 155.826 33.1824 156.275 32.6834L154.046 30.6766ZM152.399 33.3973C152.055 34.39 151.884 35.42 151.884 36.48H154.884C154.884 35.748 155.002 35.05 155.234 34.3787L152.399 33.3973ZM174.953 24.96V23.46H172.721L173.565 25.527L174.953 24.96ZM181.241 24.96L182.643 24.426L182.275 23.46H181.241V24.96ZM187.385 41.088L185.984 41.622L186.352 42.588H187.385V41.088ZM187.481 41.088V42.588H188.512L188.882 41.6256L187.481 41.088ZM193.673 24.96V23.46H192.643L192.273 24.4224L193.673 24.96ZM199.577 24.96L200.973 25.5096L201.78 23.46H199.577V24.96ZM190.505 48V49.5H191.527L191.901 48.5496L190.505 48ZM184.361 48L182.973 48.567L183.354 49.5H184.361V48ZM174.953 26.46H181.241V23.46H174.953V26.46ZM179.84 25.494L185.984 41.622L188.787 40.554L182.643 24.426L179.84 25.494ZM187.385 42.588H187.481V39.588H187.385V42.588ZM188.882 41.6256L195.074 25.4976L192.273 24.4224L186.081 40.5504L188.882 41.6256ZM193.673 26.46H199.577V23.46H193.673V26.46ZM198.182 24.4104L189.11 47.4504L191.901 48.5496L200.973 25.5096L198.182 24.4104ZM190.505 46.5H184.361V49.5H190.505V46.5ZM185.75 47.433L176.342 24.393L173.565 25.527L182.973 48.567L185.75 47.433Z" fill="#263C7E"></path><path d="M0.518728 12.0011L0.87097 12.0042L2.27133 12L4.48085 12.0108L4.48793 12.011L4.58013 12.0101L4.59485 12.01L4.78507 12.0094L5.78634 12.0096H5.82819L6.15865 12.0095H6.29767L7.87348 12.0061L7.87764 12.0059L7.95425 12.0046L8.03332 12.0046L8.1199 12.005L9.14525 12.0076L9.76254 12.0078L9.82539 12.0075L10.5369 12.011L10.8104 12.0101L10.8224 12.0117L11.5248 12.0129L13.2002 12.0189L13.5274 12.0153L13.5394 12.0147L13.6997 12.0147L13.7091 12.0146L15.2496 12.0187L15.2526 12.0189L15.7403 12.0169L15.7426 12.0165L16.3291 12.0198L18.1702 12.0147L18.5896 12.0093L19.2329 12.0116L19.443 12.0182L19.7567 12.019L19.8431 12.026L20.0633 12.0196L20.3452 12.0204L20.4247 12.0185L21.2477 12.0128L21.2677 12.0133L21.2916 12.013L21.3982 12.0135L21.9437 12.0097L22.098 12.008L22.2922 12.0086L22.4994 12.0091L22.6565 12.0101H22.6688L22.9072 12.0104L22.991 12.0116L23.2619 12.0119L23.288 12.0126L24.348 12.0088L24.3623 12.0088L24.879 12.0066L24.9139 12.0069L24.9363 12.007L25.0672 12.0057L25.2318 12.0053L25.5808 12.0042L25.9263 12.0022L25.9403 12.0024L26.0614 12.0015L26.3246 12.0029L26.4233 12.0043L26.6898 12.0028L26.735 12.0047L27.1512 12.0047L27.238 12.0052L27.26 12.0048L27.3228 12.0063L27.585 12.0085L28.0615 12.023L28.148 12.024L28.1764 12.0253L28.4067 12.0268L28.4078 12.0269L28.4255 12.0263L28.4275 12.0268L29.9981 12.0214L30.0755 12.022L30.0869 12.0226L30.8905 12.0204L31.1582 12.0185L31.1617 12.0187L31.851 12.0166L31.9343 12.0144L32.3368 12.0128L32.3582 12.0127L33.0786 12.0132L33.0995 12.0127L33.1021 12.0139L33.1268 12.0165L33.3333 12.0114L33.9348 12.0116L34.0833 12.012L34.565 12.0139L34.7262 12.0118L35.078 12.012L35.12 12.0125L35.438 12.0113L35.5009 12.0123H35.5995L35.6788 12.0119L35.7604 12.0125L36.4324 12.013L36.4778 12.0133L36.4818 12.0133L37.8504 12.015L38.8321 12.0198L38.905 12.0188L38.9349 12.0195L39.1417 12.0192L39.5086 12.0178L39.4915 12.0299L39.4963 12.046L39.4862 12.0644L39.4654 12.0582L39.4505 12.0634L39.4482 12.0774L39.4547 12.0868L39.4775 12.0997L39.4742 12.1282L39.4468 12.1297L39.4482 12.1489L39.4674 12.1653L39.4468 12.1974L39.4476 12.2111L39.4523 12.2167L39.5453 12.2534L39.5714 12.2497L39.5864 12.2549L39.5989 12.297L39.5993 12.3141L39.563 12.3253L39.505 12.31L39.4801 12.3622L39.4792 12.3898L39.5781 12.398L39.5849 12.3931L39.591 12.3884L39.5971 12.3912L39.6054 12.3958L39.6092 12.4088L39.6051 12.4199L39.6066 12.4296L39.6186 12.4511L39.6427 12.4778L39.6541 12.6126L39.6721 12.667L39.6709 12.6811L39.6405 12.7318L39.6275 12.7387L39.5949 12.7399L39.5854 12.7688L39.5824 12.7978L39.5859 12.8126L39.6234 12.8447L39.6387 12.8475L39.658 12.8292L39.665 12.8255L39.67 12.8299L39.664 12.894L39.6525 12.9108L39.6309 12.9194L39.6322 12.9258L39.6632 12.9283L39.6983 12.9138L39.7188 12.9506L39.7832 12.9585L39.8328 12.9876L39.843 13.0113L39.8889 13.0326L39.9407 13.0256L40.0229 13.0337L40.1461 13.0683L40.1616 13.0861L40.1791 13.1212L40.2009 13.1489L40.2127 13.1521L40.248 13.199L40.2869 13.27L40.2924 13.3683L40.2711 13.5161L40.2325 13.5507L40.1908 13.6149L40.17 13.622L40.1702 13.6329L40.197 13.6727L40.2023 13.6932L40.1935 13.7053L40.1748 13.71L40.1655 13.7621L40.1863 13.7764L40.189 13.7887L40.1765 13.8238L40.1598 13.8542L40.1372 13.8794L40.1325 13.9176L40.15 13.9552L40.158 13.9574L40.1738 13.9475L40.1808 13.9485L40.2448 14.0141L40.2916 14.1233L40.2376 14.2131L40.1693 14.2817L40.1858 14.3558L40.1168 14.4545L40.0926 14.4631L40.0503 14.4661L39.9713 14.4905L39.9266 14.5138L39.8816 14.5123L39.8584 14.5167L39.8409 14.5271L39.8117 14.6576L39.7563 14.7578L39.7432 14.7662L39.71 14.7682L39.7025 14.7805L39.7065 14.7998L39.7317 14.8425L39.7547 14.8511L39.7546 14.87L39.7396 14.9177L39.6866 14.9492L39.6651 14.9497L39.6359 14.9406L39.5992 14.9376L39.5179 15.0275L39.5084 15.0663L39.4762 15.0865L39.4652 15.0852L39.4472 15.068L39.4317 15.0643L39.3735 15.0906L39.3245 15.1232L39.2678 15.1451L39.2398 15.1791L39.2139 15.1838L39.1926 15.1764L39.1761 15.2181L39.1499 15.2294L39.1389 15.2267L39.1302 15.2314L39.1132 15.2772L39.089 15.2681L39.0735 15.2765L39.073 15.3076L39.083 15.3184L39.0488 15.3749L38.9883 15.4131L38.9686 15.4148L38.9489 15.4003L38.9074 15.3983L38.8285 15.5181L38.8113 15.5654L38.8198 15.5888L38.7752 15.6741L38.8099 15.731L38.8104 15.8012L38.7733 15.886L38.7264 15.9092L38.696 15.918L38.6815 15.9573L38.6563 15.9898L38.6175 16.0162L38.5962 16.0194L38.5683 16.0139L38.5516 16.0159L38.5019 16.0896L38.4478 16.1162L38.3916 16.1236L38.2643 16.1563L38.2521 16.1715L38.2174 16.2383L38.2221 16.259L38.2211 16.2764L38.2042 16.3299L38.148 16.3673L38.0939 16.37L38.0338 16.4187L38.0206 16.4493L38.0258 16.5128L38.0375 16.5335L38.0408 16.562L38.0398 16.5743L38.0198 16.6194L37.9091 16.6605L37.8896 16.7228L37.8747 16.8729L37.8553 16.8798L37.7795 16.9354L37.769 16.9549L37.7761 17.0092L37.7524 17.0469L37.7449 17.0806L37.7494 17.0973L37.7457 17.1138L37.6956 17.1901L37.6333 17.2398L37.5142 17.4326L37.5954 17.4313L37.8263 17.4304L37.8545 17.4289L38.2708 17.425L38.3025 17.4247L39.4525 17.4145L39.7311 17.4117L39.7398 17.4121L39.9389 17.4062L41.1004 17.3971L41.1644 17.399L41.202 17.3955L41.2125 17.3968H41.2171L41.732 17.3931L41.7733 17.3923L41.9584 17.391L41.9629 17.3908L41.9672 17.3908L42.0166 17.3901L42.8904 17.3806L42.8929 17.3805L43.1789 17.3802L43.1796 17.3806L43.2191 17.3797L43.2357 17.4198L43.2603 17.4554L43.3424 17.5369L43.3456 17.5473L43.3353 17.659L43.3378 17.6985L43.3456 17.727L43.3831 17.7834L43.4215 17.8179L43.5131 17.8798L43.6276 17.9479L43.7188 18.025L43.7675 18.076L43.8999 18.1832L43.9342 18.2299L43.9513 18.2692L43.9834 18.3743L44 18.4135L43.9785 18.5148L43.9483 18.5581L43.9061 18.6007L43.8856 18.6132L43.8157 18.6395L43.7813 18.6397L43.7153 18.6135L43.6728 18.5677L43.6169 18.493L43.3798 18.3932L43.1471 18.3878L43.0137 18.4811L42.9308 18.5536L42.9037 18.6034L42.8773 18.6778L42.8674 18.7152L42.8611 18.764L42.8635 18.8098L42.8708 18.8348L42.8978 18.8727L42.9427 18.9076L43.0747 18.965L43.2508 19.0221L43.43 19.1157L43.4734 19.1498L43.4864 19.1667L43.4995 19.2007L43.5027 19.2302L43.4965 19.273L43.4777 19.3155L43.4581 19.3371L43.3357 19.409L43.3047 19.4323L43.2107 19.4667L43.1313 19.4705L42.9999 19.4212L42.9329 19.4127L42.9328 19.4309L42.7883 19.4784L42.6597 19.61L42.6331 19.6561L42.6533 19.7189L42.6517 19.746L42.6338 19.7961L42.5451 19.9146L42.5131 19.9492L42.4993 19.9622L42.4395 19.9967L42.4067 20.0075L42.3361 20.0162L42.2172 20.0073L42.1166 20.0679L42.062 20.0945L41.9827 20.1619L41.9437 20.1612L41.8881 20.1224L41.8471 20.0679L41.6934 19.9716L41.654 19.968L41.6262 19.9905L41.6054 20.016L41.2976 20.192L41.2648 20.217L41.2447 20.2467L41.2232 20.3075L41.2215 20.349L41.2387 20.4792L41.2417 20.6525L41.2491 20.7046L41.2708 20.7496L41.2986 20.7922L41.3646 20.8705L41.4117 20.9712L41.4678 21.0318L41.5411 21.0827L41.6059 21.1096L41.688 21.1271L41.752 21.1296L41.8264 21.1136L41.8576 21.1004L41.8757 21.0847L41.8938 21.0595L41.9323 20.9807L41.9445 20.9667L41.9895 20.9415L42.054 20.9212L42.085 20.9246L42.1058 20.9354L42.1537 20.9999L42.1744 21.0598L42.1772 21.1371L42.1687 21.2007L42.1504 21.2649L42.1262 21.3057L42.062 21.3449L41.9499 21.3891L41.7924 21.508L41.769 21.515L41.7443 21.5131L41.6891 21.5015L41.6479 21.4866L41.6347 21.4917L41.5688 21.5433L41.4549 21.59L41.3407 21.6569L41.2899 21.701L41.2634 21.7355L41.2403 21.7756L41.2302 21.8103L41.2299 21.8292L41.2408 21.8727L41.2629 21.9302L41.3274 22.0635L41.3465 22.0984L41.3762 22.1386L41.4849 22.1921L41.5288 22.2026L41.5883 22.2053L41.617 22.2117L41.647 22.2352L41.6546 22.2723L41.6461 22.304L41.647 22.3292L41.6643 22.3365L41.693 22.3499L41.7036 22.3614L41.7081 22.3777L41.6746 22.4977L41.6626 22.5233L41.6369 22.5568L41.6062 22.5813L41.5714 22.5946L41.5375 22.5886L41.445 22.5447L41.344 22.5357L41.3176 22.5282L41.289 22.5092L41.2439 22.4694L41.2318 22.4523L41.2316 22.421L41.2489 22.388L41.2501 22.374L41.2407 22.3222L41.2249 22.2973L41.0673 22.1672L40.9518 22.1013L40.9198 22.0935L40.8665 22.0893L40.7843 22.101L40.758 22.1113L40.7045 22.1445L40.6462 22.1409L40.6044 22.1525L40.5662 22.1718L40.5249 22.2051L40.506 22.2295L40.4864 22.3425L40.4617 22.4046L40.4487 22.4267L40.4233 22.505L40.4128 22.5796L40.4284 22.6962L40.4524 22.7798L40.4726 22.825L40.5482 22.9488L40.6773 23.0603L40.6896 23.0865L40.6909 23.1184L40.6624 23.1978L40.6431 23.2311L40.6223 23.3002L40.6197 23.3313L40.6225 23.3822L40.6155 23.4058L40.5983 23.434L40.581 23.4732L40.5782 23.5149L40.4987 23.5655L40.4804 23.5835L40.4664 23.6049L40.4568 23.6454L40.4454 23.6717L40.3565 23.7696L40.4586 23.8386L40.4899 23.8461L40.4608 23.8851L40.3747 23.9209L40.2447 23.7214L40.3089 23.6481L40.2335 23.5616L40.2022 23.4475L40.2024 23.3874L40.2266 23.2729L40.263 23.1596L40.2636 23.1182L40.2578 23.1034L40.2193 23.055L40.1487 22.99L40.1055 22.9687L39.9842 22.9713L39.9573 22.9895L39.9046 22.989L39.8454 23.0367L39.8102 23.076L39.7905 23.1085L39.7681 23.1714L39.7123 23.3627L39.3624 23.5769L39.3483 23.6143L39.3474 23.7027L39.2716 23.9679L39.2798 24.001L39.3324 24.0481L39.3868 24.0794L39.5754 24.0806L39.6587 24.0589L39.5882 23.9423L39.5671 23.8625L39.5642 23.8157L39.574 23.77L39.5885 23.7389L39.6043 23.7187L39.6377 23.6873L39.6621 23.6716L39.7033 23.6634L39.8234 23.6853L39.8623 23.7017L39.8796 23.7183L39.913 23.7744L39.9301 23.7942L40.0025 23.8606L40.0296 23.8811L40.0813 23.9077L40.1505 23.9671L40.1678 23.9753L40.1942 23.979L40.116 24.1428L40.0799 24.2017L40.057 24.2271L40.0305 24.2314L40.001 24.2663L39.9703 24.3259L39.9082 24.4163L39.8949 24.4222L39.8818 24.4201L39.9387 24.5307L39.9125 24.6137L39.8924 24.8229L39.8205 24.8399L39.7794 24.8277L39.7631 24.8277L39.6863 24.8708L39.6234 24.8885L39.5323 24.841L39.5005 24.8484L39.4517 24.8692L39.4312 24.8872L39.4083 24.9174L39.3961 24.9486L39.3635 25.0678L39.3642 25.0987L39.3837 25.1467L39.4521 25.2746L39.512 25.3447L39.6155 25.3841L39.6887 25.3746L39.7641 25.3554L39.827 25.3469L39.8835 25.3504L39.9278 25.3628L39.9774 25.3936L39.9911 25.4087L40.0535 25.4916L40.0939 25.5605L40.1238 25.602L40.1609 25.6447L40.1775 25.6809L40.1948 25.723L40.2016 25.759L40.2005 25.8182L40.178 25.8468L40.1395 25.8539L40.1134 25.8297L40.0738 25.8089L40.0323 25.9057L40.0042 25.9955L39.9958 25.996L39.8926 25.9502L39.8297 25.9566L39.8177 26.041L39.819 26.0695L39.8471 26.1354L39.8748 26.1679L39.8917 26.1699L39.9014 26.2112L39.924 26.2524L39.9444 26.2813L39.9749 26.3185L40.0034 26.3557L40.0353 26.3956L40.0581 26.4058L40.2436 26.4337L40.2652 26.4529L40.2695 26.461L40.286 26.5722L40.2791 26.6033L40.2685 26.6214L40.2278 26.6682L40.1196 26.7737L40.0905 26.7938L40.056 26.8096L39.9676 26.8266L39.8898 26.8032L39.6276 26.6426L39.5943 26.631L39.5775 26.6321L39.4775 26.6746L39.4415 26.6975L39.3949 26.7358L39.3217 26.8119L39.293 26.8755L39.2528 27.0953L39.1312 27.4099L39.1184 27.47L39.1134 27.5274L39.1159 27.6024L39.1227 27.669L39.087 27.7177L39.005 27.7842L38.9609 27.7922L38.9443 27.7895L38.8688 27.7479L38.8173 27.7335L38.5883 27.6998L38.5361 27.6796L38.5272 27.668L38.5237 27.6457L38.5104 27.6382L38.2742 27.6223L38.2423 27.6404L38.2273 27.6637L38.1972 27.7603L38.1423 27.8729L38.116 27.9625L38.1123 28.0204L38.1211 28.1117L38.1642 28.2258L38.1815 28.2562L38.235 28.317L38.2646 28.3358L38.3163 28.3575L38.3605 28.4092L38.3959 28.4366L38.5603 28.5139L38.6106 28.5436L38.6453 28.5838L38.6649 28.6186L38.6801 28.6568L38.6946 28.7281L38.6924 28.9038L38.6763 28.9765L38.6607 29.0235L38.6449 29.0491L38.3859 29.2319L38.1861 29.3382L38.1148 29.3907L38.0841 29.4267L38.1706 29.5538L38.181 29.5881L38.1798 29.6104L38.1685 29.6511L38.138 29.6969L38.1033 29.7178L38.0335 29.7111L37.9993 29.6949L37.9176 29.6298L37.8461 29.5469L37.7767 29.6024L37.7418 29.6228L37.497 29.6997L37.3042 29.8123L37.2242 29.847L37.1871 29.8489L37.1208 29.8296L37.1073 29.8197L37.0642 29.7477L37.0458 29.6674L37.0378 29.6031L37.0379 29.5622L37.061 29.4968L37.0622 29.4747L37.0523 29.4319L36.9951 29.3098L36.9796 29.2902L36.9536 29.2718L36.9222 29.254L36.8416 29.2208L36.7893 29.2121L36.7333 29.2223L36.649 29.2719L36.6119 29.3041L36.5757 29.3687L36.5705 29.3907L36.5662 29.4526L36.5765 29.5365L36.5935 29.5739L36.6603 29.662L36.7542 29.8163L36.8149 29.9386L36.8164 29.9702L36.7964 30.0333L36.7403 30.074L36.6945 30.1329L36.6791 30.1601L36.665 30.2031L36.6587 30.2582L36.6681 30.3044L36.6956 30.3886L36.7976 30.5644L36.8493 30.68L36.8659 30.7388L36.8651 30.7738L36.8543 30.8223L36.8323 30.8682L36.8059 30.8959L36.7002 30.9584L36.6134 30.9821L36.5324 30.9933L36.4191 30.988L36.3035 30.9307L36.2718 30.8975L36.248 30.8359L36.2401 30.7838V30.7317L36.252 30.6796L36.2877 30.6272L36.3852 30.5613L36.4221 30.5045L36.425 30.4912L36.4204 30.453L36.4013 30.3965L36.3209 30.2234L36.3037 30.1675L36.2313 30.1622L36.1566 30.18L36.1108 30.2013L36.078 30.231L36.0439 30.2798L36.0126 30.3493L36.0076 30.3779L36.0104 30.4064L36.0249 30.4673L36.0567 30.5631L36.0561 30.6876L36.0462 30.7231L36.0284 30.7585L36.0126 30.775L35.9889 30.7916L35.9633 30.801L35.9356 30.8049L35.9039 30.8129L35.8716 30.8353L35.8549 30.8579L35.8389 30.8904L35.8307 30.9547L35.8315 30.982L35.8368 30.998L35.853 31.0217L36.0264 31.2224L36.089 31.2572L36.1754 31.278L36.2384 31.2802L36.3467 31.2655L36.4643 31.2382L36.5492 31.2287L36.6104 31.2283L36.6533 31.2356L36.6888 31.2542L36.7252 31.2904L36.7547 31.3385L36.7652 31.3757L36.7628 31.4127L36.7343 31.516L36.7009 31.5675L36.6133 31.6679L36.541 31.7214L36.4636 31.7928L36.4068 31.8703L36.3622 31.9137L36.2819 31.9745L36.2172 32.0001L36.1491 32.0108L36.105 32.0079L36.0472 31.989L36.0126 31.9668L35.9759 31.9158L35.9549 31.8694L35.9463 31.8127L35.9564 31.7199L35.9681 31.6703L35.9901 31.6308L36.0852 31.552L36.0971 31.5274L36.0901 31.4298L36.0793 31.4032L36.0555 31.363L36.0085 31.3166L35.9927 31.2922L35.971 31.2751L35.9417 31.2661L35.873 31.288L35.8381 31.3144L35.787 31.3879L35.7371 31.4152L35.7083 31.4533L35.6515 31.5514L35.6505 31.5759L35.6612 31.6101L35.67 31.7551L35.6815 31.8039L35.6987 31.8405L35.6993 31.8503L35.653 32.0201L35.6621 32.135L35.7111 32.2566L35.7722 32.3515L35.8133 32.4337L35.8599 32.485L35.9236 32.5449L35.9981 32.6381L36.0278 32.6892L36.0715 32.8202L36.0734 32.8494L36.0686 32.8785L36.0478 32.9308L36.0293 32.9585L35.9448 33.0296L35.8203 33.0945L35.7394 33.1849L35.7166 33.2216L35.6948 33.3137L35.6683 33.3557L35.6469 33.4508L35.6383 33.5173L35.6522 33.6673L35.6776 33.7656L35.6931 33.7911L35.7535 33.8383L35.7795 33.8644L35.8381 33.9856L35.8514 34.0488L35.8454 34.1L35.8287 34.1498L35.8044 34.197L35.7673 34.2515L35.72 34.3L35.4257 34.5089L35.3856 34.5295L35.2696 34.5461L35.2399 34.5549L35.1828 34.5811L35.0311 34.6671L35.0594 34.7078L34.9582 34.8766L34.9575 34.9529L35.0146 35.0878L35.0415 35.177L35.0404 35.2303L35.0059 35.3022L34.9356 35.3272L34.8581 35.3271L34.7882 35.2983L34.7527 35.2687L34.7251 35.2267L34.7202 35.1518L34.7391 35.0577L34.8269 34.9072L34.8367 34.8059L34.8243 34.7694L34.8128 34.7397L34.7484 34.7419L34.663 34.7709L34.5574 34.7925L34.4439 34.794L34.4066 34.7883L34.2961 34.7565L34.221 34.7492L34.1671 34.7561L34.115 34.7825L34.0825 34.8104L34.071 34.8297L34.0587 34.9013L34.065 34.9708L34.0706 34.9878L34.0877 35.0135L34.2313 35.1375L34.2687 35.2025L34.2866 35.251L34.305 35.3225L34.3025 35.3955L34.2831 35.4405L34.1982 35.5772L34.1753 35.6027L34.0878 35.6692L34.0249 35.6753L33.8011 35.6495L33.7536 35.6488L33.666 35.6806L33.5945 35.6975L33.563 35.7143L33.5295 35.7415L33.5087 35.7668L33.4928 35.8063L33.4524 35.9892L33.4258 36.1364L33.4245 36.1996L33.43 36.2406L33.4256 36.2735L33.4066 36.3386L33.383 36.4005L33.3566 36.4474L33.3127 36.4172L33.2778 36.3942L33.1862 36.3885L33.0795 36.3537L32.9429 36.2598L32.91 36.2296L32.8941 36.2047L32.8569 36.0854L32.8423 36.0584L32.8321 36.0483L32.7851 36.0331L32.6899 36.0268L32.6381 36.0478L32.5983 36.0932L32.5727 36.1302L32.5661 36.1575L32.5675 36.2318L32.5832 36.3158L32.6056 36.3603L32.7528 36.5485L32.7904 36.5802L32.9667 36.6762L33.002 36.7055L33.0478 36.6804L33.0941 36.6671L33.1263 36.6925L33.1633 36.6952L33.2083 36.6855L33.2568 36.6602L33.2876 36.654L33.3628 36.6627L33.4415 36.6863L33.5284 36.676L33.6329 36.6945L33.6701 36.7183L33.6909 36.7427L33.7027 36.7696L33.7162 36.8581L33.7104 36.921L33.6833 36.9795L33.6391 37.0428L33.5797 37.104L33.5521 37.1255L33.5116 37.1486L33.4602 37.1689L33.3622 37.1793L33.3065 37.1727L33.2082 37.1408L33.179 37.1241L33.0997 37.0612L33.0446 37.0258L32.9445 36.9265L32.8631 36.891L32.8062 36.8786L32.558 37.0546L32.4144 37.1624L32.37 37.248L32.3775 37.303L32.3996 37.3554L32.4656 37.4484L32.4849 37.4683L32.7066 37.6301L32.732 37.6396L32.7703 37.6427L32.8848 37.6227L32.9521 37.5898L33.0002 37.5897L33.0485 37.6022L33.0814 37.6237L33.1018 37.6411L33.1432 37.7068L33.1561 37.7479L33.1555 37.7712L33.1431 37.8148L33.12 37.8602L33.053 37.9456L33.0156 38.0016L33.0024 38.0348L32.9954 38.0661L32.9916 38.1297L33.0063 38.1981L33.0099 38.2479L33.0062 38.2751L32.9925 38.3036L32.9619 38.3343L32.8995 38.3664L32.7652 38.3865L32.7 38.3725L32.6847 38.3733L32.586 38.414L32.5173 38.4267L32.4497 38.4291L32.3776 38.4036L32.269 38.3893L32.2142 38.3923L32.1627 38.4013L32.1167 38.4163L32.1875 38.6149L32.2092 38.6522L32.2671 38.7011L32.3502 38.8263L32.3531 38.8661L32.331 38.9548L32.318 38.9782L32.2964 39.0006L32.2679 39.0158L32.2147 39.0301L32.1573 39.0335L32.1193 39.0271L32.0555 39.0027L32.0091 38.968L31.9836 38.9211L31.966 38.8571L31.8896 38.6738L31.8429 38.583L31.7113 38.6651L31.6598 38.7283L31.6318 38.7543L31.5821 38.7725L31.4591 38.7725L31.38 38.7788L31.3431 38.7881L31.3088 38.8037L31.274 38.8272L31.2321 38.8747L31.2215 38.9028L31.2159 38.9335L31.2156 38.9725L31.2253 39.0214L31.2424 39.0536L31.266 39.0755L31.3155 39.0977L31.5966 39.1674L31.6919 39.2057L31.8322 39.2751L31.8951 39.326L31.9187 39.3566L31.9212 39.3812L31.9142 39.3964L31.8554 39.4642L31.7766 39.5805L31.6855 39.6795L31.5207 39.8418L31.4681 39.8997L31.3829 40.0127L31.3659 40.0579L31.364 40.1097L31.3801 40.1926L31.4127 40.2878L31.4351 40.3225L31.5084 40.4082L31.5427 40.458L31.5705 40.515L31.5955 40.5502L31.6345 40.5765L31.7873 40.6487L31.8322 40.6645L31.9413 40.6839L32.0091 40.7157L32.083 40.7885L32.1047 40.8364L32.1121 40.8729L32.1034 40.9142L32.0877 40.9538L32.0645 40.9872L32.0091 41.0336L31.897 41.0805L31.804 41.0981L31.7731 41.0913L31.5333 40.9338L31.4745 40.9449L31.2535 40.9578L31.2226 40.9642L31.0605 41.0184L31.0236 40.9771L30.9675 40.9304L30.9176 40.8982L30.8756 40.8842L30.8405 40.8845L30.8257 40.8908L30.7948 40.9211L30.7725 40.9504L30.7536 40.9849L30.7261 41.0527L30.7288 41.0876L30.7392 41.1075L30.7598 41.1207L30.7647 41.1322L30.7576 41.1717L30.7309 41.2172L30.7312 41.2409L30.7423 41.2639L30.7136 41.3751L30.7128 41.4174L30.7201 41.4544L30.7295 41.4765L30.8391 41.6078L30.8994 41.6649L30.9684 41.7008L31.0576 41.7078L31.1155 41.7043L31.2149 41.6797L31.343 41.6061L31.4058 41.5845L31.446 41.5906L31.4801 41.6018L31.5184 41.6262L31.5961 41.6907L31.645 41.7574L31.6647 41.7923L31.6813 41.8308L31.6904 41.8704L31.7148 41.874L31.741 41.8845L31.7417 41.9487L31.7317 41.9851L31.7042 42.0386L31.6841 42.0564L31.5994 42.0882L31.563 42.0904L31.4864 42.1077L31.4163 42.1465L31.3154 42.1925L31.2657 42.2026L31.2296 42.2019L31.178 42.1918L31.1166 42.1688L30.8559 42.0229L30.8296 41.9992L30.7343 41.8654L30.5867 41.6825L30.5726 41.6852L30.5427 41.703L30.4552 41.7241L30.328 41.7372L30.2342 41.7406L30.1929 41.7481L30.1336 41.775L30.0585 41.8306L30.0168 41.8847L29.994 41.9336L29.9838 41.9913L29.9907 42.0563L30.0057 42.0841L30.037 42.1245L30.072 42.1589L30.1407 42.19L30.3692 42.2414L30.4324 42.2675L30.4956 42.3024L30.5571 42.3493L30.6785 42.4565L30.7784 42.5333L30.821 42.5974L30.8519 42.6871L30.8559 42.7381L30.8458 42.8069L30.8382 42.8326L30.8241 42.8586L30.7854 42.8961L30.6639 42.9815L30.6172 42.9955L30.5877 42.9958L30.453 42.9789L30.4332 42.9827L30.408 42.994L30.3383 43.0493L30.2557 43.0927L30.2126 43.1063L30.0506 43.1334L30.0271 43.1417L29.9884 43.1699L29.9625 43.2124L29.9526 43.2451L29.9548 43.2938L29.9765 43.3537L30.0076 43.4147L30.0698 43.5069L30.1018 43.5375L30.3523 43.7343L30.3766 43.7676L30.3918 43.8195L30.3903 43.8588L30.3676 43.8819L30.3345 43.9173L30.2791 43.9646L30.2441 44.0203L30.1904 44.1201L30.1807 44.1539L30.165 44.1716L30.1033 44.2115L30.0618 44.2296L30.034 44.2325L29.9604 44.2915L29.9522 44.3243L29.9448 44.4276L29.9369 44.4457L29.9226 44.4633L29.9292 44.4804L30.0868 44.5249L30.1496 44.5344L30.1803 44.5338L30.2878 44.5077L30.3557 44.4844L30.4016 44.4616L30.4414 44.4318L30.5116 44.3381L30.49 44.2369L30.4561 44.1387L30.4441 44.0643L30.4427 43.9885L30.4574 43.9406L30.4863 43.8789L30.5289 43.862L30.5588 43.871L30.5931 43.8983L30.6181 43.9181L30.8009 44.0391L30.9031 44.1275L30.9513 44.2589L30.9662 44.3258L30.9616 44.3747L30.9386 44.4326L30.8723 44.5084L30.8549 44.5399L30.8549 44.5541L30.8432 44.5732L30.7789 44.6056L30.7282 44.5978L30.7036 44.6034L30.5644 44.6556L30.4504 44.7095L30.423 44.7077L30.3783 44.6825L30.3115 44.7017L30.2462 44.6956L30.2177 44.7111L30.1939 44.7382L30.1635 44.7956L30.1589 44.8209L30.1606 44.8485L30.1687 44.8655L30.1984 44.8986L30.319 44.9943L30.4445 45.0651L30.4885 45.0839L30.5386 45.0977L30.6473 45.1059L30.7631 45.0897L30.9163 45.0163L31.0035 44.958L31.0618 44.896L31.1317 44.8005L31.1676 44.7042L31.1665 44.6189L31.1476 44.5558L31.1471 44.5351L31.1543 44.4947L31.1759 44.4419L31.1999 44.4039L31.2447 44.3491L31.286 44.3219L31.3216 44.3067L31.3504 44.305L31.4117 44.3123L31.4376 44.3262L31.4807 44.3628L31.5002 44.4141L31.4955 44.5874L31.459 44.6652L31.3439 44.8242L31.2062 44.9303L31.1124 45.0198L31.0655 45.0828L30.9447 45.2632L30.9031 45.3018L30.7697 45.3918L30.7555 45.4062L30.7517 45.4175L30.7628 45.5475L30.7546 45.5843L30.7417 45.6097L30.7389 45.6318L30.7583 45.7783L30.7571 45.932L30.7709 45.9624L30.8993 46.1326L30.8994 46.19L30.8768 46.2548L30.9642 46.3217L30.9729 46.3361L30.9985 46.4165L31.0318 46.4895L31.0709 46.5324L31.1244 46.5706L31.1333 46.5701L31.1524 46.5342L31.1717 46.442L31.2006 46.3969L31.2107 46.371L31.2479 46.2012L31.2695 46.1502L31.2912 46.1222L31.3152 46.1008L31.368 46.074L31.4169 46.0606L31.4904 46.0635L31.5467 46.0789L31.584 46.1062L31.6106 46.1455L31.6241 46.191L31.6209 46.2409L31.6102 46.287L31.5885 46.3433L31.564 46.4347L31.5311 46.4877L31.4446 46.5786L31.4294 46.6241L31.4021 46.6246L31.3811 46.6541L31.3845 46.6831L31.3544 46.6881L31.3228 46.6812L31.3091 46.6915V46.7186L31.3054 46.7255L31.2767 46.7422L31.2493 46.7419L31.1986 46.7506L31.2145 46.8609L31.2406 46.9823L31.2636 47.1657L31.259 47.3637L31.253 47.4258L31.2351 47.5363L31.215 47.5936L31.1854 47.6241L31.0871 47.6773L31.0006 47.6956L30.8452 47.7032L30.7419 47.6961L30.6797 47.6867L30.6665 47.6752L30.6562 47.641L30.5918 47.5774L30.5798 47.5716L30.5112 47.5627L30.3851 47.5725L30.3403 47.592L30.3009 47.624L30.2821 47.6448L30.2248 47.7445L30.222 47.7847L30.2276 47.9053L30.2305 47.9203L30.239 47.9334L30.2763 47.958L30.4101 48.0223L30.4641 48.0921L30.4746 48.1162L30.4925 48.1317L30.542 48.1488L30.5886 48.1548L30.6844 48.1962L30.9073 48.3775L30.9377 48.429L30.9457 48.4627L30.945 48.4771L30.9179 48.5596L30.8983 48.6457L30.8679 48.6946L30.794 48.7446L30.7499 48.7602L30.685 48.7698L30.6284 48.7981L30.5735 48.8385L30.5388 48.9251L30.5407 49L29.6652 48.9899L29.4938 48.9907L29.2494 48.988L29.1566 48.9872L29.1342 48.987L29.1222 48.9868L29.0924 48.9864L29.0637 48.9852L28.6832 48.9825L28.2457 48.9802L28.1544 48.9793L27.9988 48.982L27.682 48.9785L27.5852 48.9722L27.0598 48.9717L26.9463 48.9709L26.8816 48.9755L26.8801 48.975L26.6218 48.9746L26.5456 48.9729L26.4655 48.9737L25.5023 48.9641L25.3295 48.9699L24.2672 48.9624L23.6048 48.9646L23.5874 48.9656L22.551 48.9579L21.1909 48.9484L20.573 48.9378L20.1905 48.9353L19.9519 48.9324L19.8862 48.9315L19.0061 48.9181L18.7263 48.9165L18.7052 48.9165L16.8692 48.8942L16.8285 48.8933L16.7607 48.894L16.7479 48.8938L16.6753 48.8938L16.115 48.8888L15.8118 48.8802L15.6943 48.8763L15.6925 48.876L15.605 48.8753L15.487 48.876L14.7876 48.8683L14.5701 48.8643L13.6894 48.8581L13.6674 48.857L13.5943 48.8567L13.4213 48.8582L13.4172 48.8586L12.9491 48.8574L12.5682 48.8564L12.4067 48.8519L12.2036 48.856L11.5881 48.8543L11.5862 48.8541L11.3034 48.8525L10.978 48.8535L10.1825 48.8496L9.98378 48.8513L9.97151 48.8514L9.7054 48.8496L9.67049 48.8493L9.61225 48.8493L7.9155 48.8408L7.10789 48.8417L5.25058 48.8434L5.21954 48.8441L5.15003 48.8441L5.10044 48.8436L5.08699 48.8433L5.08635 48.2182L5.08782 48.0808L5.08661 47.6535L5.08599 47.6091L5.08504 47.554L5.08916 47.3793L5.08778 46.9691L5.08763 46.9391L5.08777 46.8087L5.08906 46.5322L5.08664 46.4458L5.08623 46.3338L5.08676 46.2265L5.08608 45.6099V45.4345V45.3851L5.08554 45.3158L5.08783 45.1866L5.0862 45.1184L5.08767 44.6757L5.08678 44.5632V44.5132L5.08501 44.1537L5.0842 43.9379L5.08659 43.9169L5.08335 43.4031L5.08289 43.308L5.08269 43.2994L5.05978 43.3091L5.02286 43.3116L5.00809 43.2959L4.9708 43.3153L4.91949 43.3253L4.88778 43.3134L4.85582 43.2874L4.82871 43.2826L4.81394 43.262L4.81466 43.2365L4.83257 43.2219L4.86561 43.2085L4.87712 43.2086L4.92582 43.2273L4.93759 43.2264L4.96774 43.2081L4.97464 43.1989L4.9708 43.1429L4.96636 43.1369L4.92491 43.1267L4.87569 43.1256L4.86724 43.1128L4.863 43.0937L4.86054 43.077L4.85206 43.0708L4.84429 43.0666L4.83582 43.0637L4.83263 43.0662L4.82981 43.0708V43.0775L4.82805 43.087L4.82416 43.0909L4.73594 43.0569L4.68019 43.0587L4.60501 43.0754L4.58141 43.0874L4.55426 43.1106L4.46873 43.1456L4.40627 43.1455L4.40226 43.1612L4.39904 43.2128L4.37993 43.2904L4.37092 43.301L4.34437 43.3161L4.3288 43.313L4.3047 43.2923L4.28996 43.2399L4.27881 43.1225L4.27143 43.1034L4.26344 43.0997L4.2562 43.1038L4.19835 43.1611L4.1821 43.1665L4.15307 43.1593L4.12709 43.131L4.12445 43.1197L4.12886 43.0955L4.14435 43.0766L4.17829 43.0558L4.2017 43.0336L4.21207 43.0141L4.20934 42.9954L4.18967 42.988L4.17494 42.9893L4.15119 43.0078L4.11674 43.0524L4.07997 43.0542L4.0402 43.0175L4.03372 43.0007L4.04193 42.9267L4.03145 42.9169L3.90704 42.8943L3.86676 42.8782L3.83993 42.8566L3.77819 42.9319L3.74657 42.9797L3.72824 42.9919L3.69979 42.9984L3.66585 43.0013L3.64638 42.9955L3.60056 42.9771L3.5826 42.9735L3.56991 42.9766L3.54543 43.0022L3.54357 43.0176L3.55479 43.0475L3.59736 43.0748L3.61208 43.0776L3.63208 43.0688L3.65986 43.062L3.68781 43.0532L3.72974 43.0643L3.74715 43.0758L3.7641 43.1098L3.7871 43.193L3.77428 43.2429L3.75733 43.2587L3.72949 43.2694L3.71691 43.2682L3.70214 43.2594L3.68665 43.2412L3.6658 43.1503L3.64775 43.1431L3.62612 43.1464L3.57723 43.1859L3.52753 43.2593L3.4948 43.2802L3.46409 43.2925L3.41585 43.3011L3.36223 43.295L3.25347 43.2523L3.24133 43.2375L3.23501 43.2139L3.23459 43.1992L3.24541 43.1635L3.30506 43.0772L3.3537 43.0441L3.36161 43.0333L3.37168 43.0003L3.37587 42.9473L3.37048 42.9325L3.34211 42.9103L3.31912 42.9085L3.29121 42.9147L3.23171 42.9457L3.18619 42.9837L3.14236 43.0375L3.11658 43.0768L3.07071 43.1687L3.0696 43.185L3.06058 43.2027L3.03868 43.2326L3.0287 43.2398L2.99783 43.2496L2.92279 43.248L2.90626 43.2432L2.89334 43.2303L2.88638 43.1822L2.89802 43.1361L2.97057 43.083L2.98443 43.063L2.98227 43.0392L2.96636 42.9997L2.95809 42.9901L2.92763 42.9847L2.90901 42.9875L2.87248 43.0055L2.82706 43.0493L2.80378 43.0827L2.78118 43.1322L2.7493 43.2207L2.75784 43.2428L2.75612 43.2643L2.72805 43.3054L2.64037 43.3347L2.6035 43.3246L2.54218 43.2948L2.53118 43.288L2.51906 43.2669L2.51294 43.245L2.50865 43.1921L2.50369 43.1811L2.47289 43.1447L2.45382 43.1364L2.42333 43.1369L2.41015 43.1423L2.34892 43.1959L2.34698 43.2122L2.39443 43.3L2.3936 43.3116L2.37978 43.34L2.31785 43.394L2.29109 43.3935L2.27002 43.3791L2.2528 43.3755L2.17936 43.375L2.16348 43.3806L2.09027 43.3851L2.05117 43.3759L2.02083 43.3565L1.99378 43.311L1.94614 43.2771L1.93564 43.2655L1.93344 43.2491L1.93491 43.2196L1.95109 43.1944L1.97535 43.1762L1.99569 43.1634L2.03378 43.1611L2.0826 43.1449L2.10422 43.1252L2.11775 43.1003L2.12484 43.0661L2.12204 43.041L2.10813 43.0035L2.07948 42.9758L2.05258 42.9902L1.95158 43.0974L1.8985 43.1307L1.84931 43.133L1.82035 43.1279L1.81168 43.1208L1.69819 42.9428L1.68407 42.9126L1.66229 42.8938L1.57843 42.8621L1.56056 42.8898L1.55325 42.8925L1.49354 42.8962L1.47134 42.8913L1.45033 42.8823L1.41285 42.8192L1.32567 42.807L1.29854 42.7845L1.29127 42.7733L1.28957 42.7573L1.31359 42.7248L1.37654 42.6908L1.44349 42.6429L1.45949 42.6238L1.46512 42.6047L1.4617 42.565L1.43919 42.5619L1.39468 42.5462L1.38722 42.5358L1.373 42.4784L1.40768 42.4624L1.49939 42.441L1.50768 42.4226L1.51337 42.3816L1.49775 42.3546L1.44304 42.3323L1.40431 42.3297L1.38435 42.3457L1.36017 42.408L1.34346 42.4225L1.25198 42.3945L1.20864 42.3958L1.16828 42.4058L1.17091 42.2445L1.17135 42.1392L1.18027 41.883L1.17942 41.8445L1.18628 41.6382L1.18598 41.5818L1.19486 41.2281L1.19494 41.2258L1.19569 41.196L1.19653 41.1683L1.20396 40.826L1.2066 40.7558L1.20821 40.6833L1.20827 40.6808L1.21518 40.3953L1.22066 40.1738L1.22916 39.8611L1.2305 39.8581L1.24338 39.2685L1.24646 39.1L1.24718 39.063L1.26542 38.4099L1.26542 38.387V38.3866L1.34548 34.916L1.34921 34.8373L1.36026 34.3826L1.36345 34.2587L1.36473 34.2048L1.38704 33.2782L1.3967 32.8792L1.39675 32.8517L1.41933 31.932L1.41906 31.8473L1.48362 29.5993L1.48445 29.5645L1.48511 29.5365L1.48896 29.389L1.49402 29.2268L1.49377 29.1887L1.4923 29.1705L1.56326 26.7943L1.56749 26.6978L1.57814 26.27L1.57851 26.2406L1.58425 26.077L1.58251 26.0089L1.58227 25.9694L1.5877 25.8493L1.58967 25.8237L1.59559 25.6114L1.59386 25.5227L1.59559 25.4915L1.60429 25.4075L1.61122 25.1817L1.61215 25.1501L1.6156 25.1328L1.61592 25.0093L1.6169 24.9666L1.62623 24.8068L1.64658 24.2058L1.64481 24.1578L1.64923 24.1343L1.63242 24.0629L1.63888 24.0147L1.628 23.9445L1.65189 23.8709L1.48838 22.7778L1.36785 21.8595L1.36096 21.8103L1.35778 21.7927L1.35056 21.7379L1.28531 21.2618L1.15315 20.3242L1.14762 20.2911L1.10203 19.9413L1.09153 19.8726L1.05175 19.603L1.04643 19.566L1.03865 19.5046L1.03654 19.4919L1.03302 19.464L1.01666 19.3484L1.00404 19.2502L0.993386 19.1723L0.975788 19.0407L0.887843 18.4402L0.842834 18.0926V18.0867L0.843047 18.0857L0.840605 18.0724L0.827917 17.9873L0.825299 17.9693L0.794137 17.7552L0.792872 17.751L0.759552 17.5168L0.745617 17.4206L0.734947 17.3575L0.727231 17.3023L0.621139 16.5554L0.619759 16.5446L0.502138 15.75L0.487646 15.6462L0.462413 15.4664L0.454158 15.409L0.412884 15.1167L0.407991 15.086L0.385085 14.9109L0.380794 14.8813L0.379103 14.8712L0.370857 14.8023L0.354082 14.7001L0.354224 14.6944L0.280638 14.1564L0.216962 13.6624L0.160991 13.2106L0.140987 13.0537L0.135333 13.0195L0.110692 12.8394L0.0558287 12.4117L0.0361778 12.2525L0.0230747 12.158L0 12.002L0.518728 12.0011Z" fill="#347FC4"></path></svg>